<?xml version="1.0" encoding="utf-8"?>
<!-- Generator: Adobe Illustrator 25.2.0, SVG Export Plug-In . SVG Version: 6.00 Build 0)  -->
<svg version="1.1" id="Layer_1" xmlns="http://www.w3.org/2000/svg" xmlns:xlink="http://www.w3.org/1999/xlink" x="0px" y="0px"
	 viewBox="0 0 691 148" style="enable-background:new 0 0 691 148;" xml:space="preserve">
<style type="text/css">
	.st0{fill:#061C3A;}
	.st1{fill:#E4A7CE;}
</style>
<g>
	<path class="st0" d="M15.9,34.5c0-0.2,0.2-0.4,0.4-0.4h18.2c6.1,0,10.6,1.6,13.7,4.9c3,3.3,4.6,8,4.6,14.3v39.3
		c0,6.3-1.5,11.1-4.6,14.3c-3,3.3-7.6,4.9-13.7,4.9H16.3c-0.2,0-0.4-0.2-0.4-0.4V34.5z M34.3,100.6c2,0,3.5-0.6,4.6-1.8
		c1.1-1.2,1.6-3.1,1.6-5.8V52.7c0-2.7-0.5-4.6-1.6-5.8s-2.6-1.8-4.6-1.8h-5.8c-0.2,0-0.4,0.2-0.4,0.4v54.6c0,0.2,0.2,0.4,0.4,0.4
		L34.3,100.6L34.3,100.6z"/>
	<path class="st0" d="M61.4,34h32.4c0.2,0,0.4,0.2,0.4,0.4v10.2c0,0.2-0.2,0.4-0.4,0.4H73.6c-0.2,0-0.4,0.2-0.4,0.4v19.7
		c0,0.2,0.2,0.4,0.4,0.4h15.9c0.2,0,0.4,0.2,0.4,0.4v10.2c0,0.2-0.2,0.4-0.4,0.4H73.6c-0.2,0-0.4,0.2-0.4,0.4v23
		c0,0.2,0.2,0.4,0.4,0.4h20.2c0.2,0,0.4,0.2,0.4,0.4v10.2c0,0.2-0.2,0.4-0.4,0.4H61.4c-0.2,0-0.4-0.2-0.4-0.4V34.5
		C60.9,34.2,61.1,34,61.4,34z"/>
	<path class="st0" d="M119.4,34h31.4c0.2,0,0.4,0.2,0.4,0.4v10.2c0,0.2-0.2,0.4-0.4,0.4h-19.2c-0.2,0-0.4,0.2-0.4,0.4v20.8
		c0,0.2,0.2,0.4,0.4,0.4h14.9c0.2,0,0.4,0.2,0.4,0.4v10.2c0,0.2-0.2,0.4-0.4,0.4h-14.9c-0.2,0-0.4,0.2-0.4,0.4v33
		c0,0.2-0.2,0.4-0.4,0.4h-11.3c-0.2,0-0.4-0.2-0.4-0.4V34.5C119,34.2,119.2,34,119.4,34z"/>
	<path class="st0" d="M157.2,34.5c0-0.2,0.2-0.4,0.4-0.4h17.7c6.3,0,10.9,1.5,13.8,4.4c2.9,2.9,4.3,7.4,4.3,13.5v4.8
		c0,8.1-2.7,13.2-8,15.3v0.2c3,0.9,5.1,2.7,6.3,5.4c1.2,2.7,1.8,6.4,1.8,11v13.7c0,2.2,0.1,4,0.2,5.4c0.1,1.2,0.4,2.3,0.9,3.4
		c0.1,0.3-0.1,0.6-0.4,0.6h-11.5c-0.2,0-0.4-0.1-0.4-0.3c-0.4-1.1-0.6-2.2-0.8-3.2c-0.1-1.1-0.2-3.1-0.2-6V88c0-3.6-0.6-6-1.7-7.4
		c-1.1-1.4-3.1-2.1-5.9-2.1h-3.8c-0.2,0-0.4,0.2-0.4,0.4v32.4c0,0.2-0.2,0.4-0.4,0.4h-11.3c-0.2,0-0.4-0.2-0.4-0.4V34.5H157.2z
		 M173.8,67.3c2.4,0,4.3-0.6,5.5-1.9s1.8-3.4,1.8-6.3v-6c0-2.8-0.5-4.8-1.5-6.1s-2.6-1.9-4.7-1.9h-5.1c-0.2,0-0.4,0.2-0.4,0.4v21.3
		c0,0.2,0.2,0.4,0.4,0.4L173.8,67.3L173.8,67.3z"/>
	<path class="st0" d="M206.1,107.8c-3.1-3.4-4.7-8.2-4.7-14.5V34.5c0-0.2,0.2-0.4,0.4-0.4h11.3c0.2,0,0.4,0.2,0.4,0.4v59.7
		c0,2.7,0.5,4.6,1.6,5.8c1.1,1.2,2.6,1.8,4.6,1.8s3.5-0.6,4.6-1.8c1.1-1.2,1.6-3.1,1.6-5.8V34.5c0-0.2,0.2-0.4,0.4-0.4h10.9
		c0.2,0,0.4,0.2,0.4,0.4v58.8c0,6.3-1.6,11.1-4.7,14.5c-3.1,3.4-7.6,5.1-13.5,5.1C213.7,112.8,209.2,111.2,206.1,107.8z"/>
	<path class="st0" d="M255.6,45.1h-11.9c-0.2,0-0.4-0.2-0.4-0.4V34.5c0-0.2,0.2-0.4,0.4-0.4h36.9c0.2,0,0.4,0.2,0.4,0.4v10.2
		c0,0.2-0.2,0.4-0.4,0.4h-11.9c-0.2,0-0.4,0.2-0.4,0.4v65.7c0,0.2-0.2,0.4-0.4,0.4h-11.3c-0.2,0-0.4-0.2-0.4-0.4V45.6
		C256.1,45.3,255.9,45.1,255.6,45.1z"/>
	<path class="st0" d="M290.4,107.7c-3.2-3.4-4.8-8.2-4.8-14.4V52.5c0-6.2,1.6-11,4.8-14.4c3.2-3.4,7.8-5.1,13.8-5.1
		s10.6,1.7,13.8,5.1c3.2,3.4,4.8,8.2,4.8,14.4v40.8c0,6.2-1.6,11-4.8,14.4c-3.2,3.4-7.8,5.1-13.8,5.1
		C298.1,112.8,293.5,111.1,290.4,107.7z M310.4,94.1V51.7c0-5.1-2.1-7.7-6.3-7.7c-4.2,0-6.3,2.6-6.3,7.7v42.4c0,5.1,2.1,7.7,6.3,7.7
		C308.3,101.7,310.4,99.2,310.4,94.1z"/>
	<path class="st0" d="M333.3,107.8c-3-3.4-4.6-8.2-4.6-14.5v-4c0-0.2,0.2-0.4,0.4-0.4h10.7c0.2,0,0.4,0.2,0.4,0.4v4.9
		c0,5,2.1,7.5,6.3,7.5c2.1,0,3.6-0.6,4.7-1.8c1.1-1.2,1.6-3.2,1.6-5.9c0-3.3-0.7-6.1-2.2-8.6s-4.2-5.5-8.2-8.9
		c-5-4.4-8.5-8.5-10.5-12c-2-3.6-3-7.6-3-12.2c0-6.1,1.6-10.9,4.7-14.3s7.6-5,13.5-5c5.8,0,10.3,1.7,13.3,5c3,3.4,4.5,8.2,4.5,14.5
		v2.8c0,0.2-0.2,0.4-0.4,0.4h-10.7c-0.2,0-0.4-0.2-0.4-0.4v-3.6c0-2.7-0.5-4.6-1.6-5.8c-1-1.2-2.6-1.8-4.6-1.8
		c-4.1,0-6.1,2.5-6.1,7.4c0,2.8,0.8,5.4,2.3,7.9c1.5,2.4,4.3,5.4,8.3,8.9c5.1,4.4,8.6,8.5,10.5,12.1s2.9,7.9,2.9,12.8
		c0,6.4-1.6,11.2-4.7,14.7c-3.1,3.4-7.7,5.1-13.7,5.1C340.8,112.8,336.3,111.2,333.3,107.8z"/>
</g>
<path class="st1" d="M468.5,46.1V48c-0.1,0.7-0.2,1.4-0.3,2.1v2.1c-0.2,0.1-0.4,0.3-0.7,0.4v1c0,1-0.1,1.9-0.6,2.8
	c-0.1,0.5-0.2,1-0.2,1.5c-0.1,1-0.6,1.7-0.6,2.6c-0.1,0.7-0.4,1.3-0.4,1.8c-0.1,0.4-0.4,0.9-0.1,1.5c0.2,0.2-0.1,0.7-0.2,1
	c-0.5,1.3-1.1,2.5-1.5,3.8c-0.1,0.1-0.2,0.2-0.2,0.3c-0.8,1.3-1.5,2.8-2.1,4.1c-0.6,1.2-1,2.3-1.8,3.3c-0.1,0.2,0,0.5-0.1,0.7
	l0.5-0.4c0.2,0.7-0.5,1-0.7,1.6v-0.7c-0.2,0.1-0.4,0.2-0.5,0.3c-0.4,1-0.8,1.8-1.4,2.7c-0.3,0.1-0.8,0.1-1,0.4c0,0.7-0.8,1.2-1,1.8
	c-0.1,0.6-0.3,1.2-0.6,1.6c-1.1,2.2-2.5,4.4-3.6,6.4c-1.4,2.3-2.8,4.5-4.5,6.6c-1,1.3-2.1,2.6-3.2,3.8l-3.2,3.5
	c-2,2.2-4.3,4.1-6.5,6.1c-1.4,1.2-2.8,2.3-4.4,3.4c-0.2,0.2-0.6,0.4-0.6,0.7c-0.2,0.6-0.8,1-1.3,1.3c-1.1,0.9-2.3,1.6-3.6,2.4
	c-1.5,0.9-2.8,2-4.3,2.9c-1.4,0.7-2.6,1.5-4,2.4c-1.5,0.9-3.1,1.7-4.6,2.6c-0.1-0.1-0.2-0.2-0.3-0.2c-0.2,0-0.3,0.2-0.4,0.2
	c-1,0.1-1.5,1.2-2.5,1c-0.8,0.4-1.7,0.7-2.4,1.2c-1.3,0.6-2.4,1.3-3.8,1.8c-2.1,0.9-4.2,1.9-6.6,2.4l-0.7,0.3
	c-0.6,0.5-1,0.7-1.8,0.7c-0.7,0.2-1.5,0.3-2.2,0.4c-0.7,0.2-1.5,0.1-2.1,0.4h-0.1c-1,0.1-2,0.1-3.1,0.3c-1.7,0.3-3.5,0.1-5.2,0.2
	c-0.4,0-0.8,0.2-1.4,0.2s-1.3-0.3-2-0.2c-0.7,0-1.4,0.1-2-0.2c-0.5-0.3-1.3,0-1.9-0.3c-0.3-0.1-0.8-0.2-1.1-0.4
	c-0.6-0.3-1.4-0.4-2-0.3c-1-0.6-2.1-1-3.1-1.5c-1-0.3-1.7-0.7-2.5-1c-1.9-0.9-3.7-2.1-5.5-3.2l-1.5-0.9c-1.7-1.3-3.1-2.7-4.6-4.1
	c-0.4-0.4-0.7-0.9-1.1-1.3c-0.3-0.4-0.7-0.7-1-1.2c-1-1.5-1.5-2.4-2.1-4.4c-0.4-1.3-0.6-2.7-0.4-3.9c0.1-1.3,0.3-2.4,1-3.5
	c0.1-0.1,0.2-0.1,0.2-0.1v0.7c-0.6,1-1,3.8-0.6,5.4c0.1-0.6,0-1.3,0.1-1.9c0-0.7,0.2-1.3,0.3-2l0.4-0.4c-0.1-0.4-0.2-0.7-0.3-1
	l0.5,0.2c0-0.2,0-0.4,0-0.7c0.4-0.4,0.6-0.7,0.8-1.3c0.2-0.6,0.6-1.2,1-1.9c0-0.2,0.3-0.7-0.2-1.2c0.7-0.7,1.3-1.5,1.9-2.3
	c1-1.2,1.7-2.4,2.8-3.5c0.4-0.3,0.6-0.7,1-1.2c0.3-0.3,0.1-0.9,0.6-1.2c0-0.3,0.3-0.4,0.5-0.6c1.4-1.3,2.6-2.4,4.1-3.5
	c1.1-0.9,2.5-1.7,3.8-2.5c0.7-0.4,1.3-1,1.8-1.5c0.2-0.2,0.3-0.6,0.4-0.9c0-0.4-0.1-1,0.2-1.5c-0.1-1.4,0.6-2.9,0.3-4.4
	c-0.1-0.9,0.3-1.7,0.2-2.7c0-0.9-0.1-1.8,0.1-2.7c0.4-1.6,0.1-3.4,0.2-5l0.3-3.2c0.1,0,0.2-0.1,0.4-0.1V67c0.2,0,0.3,0,0.4-0.1
	c0,0,0.1-0.1,0.1-0.2c0-0.9-0.3-1.7-0.3-2.7l0.3-1.9c0-0.6-0.1-1.3,0-1.8c0.3-0.7,0.2-1.5,0.3-2.2l0.4-0.4c0.1-0.6-0.1-1.2,0.3-1.6
	c0-1.3,0.3-2.4,0.6-3.5c0.2-0.9,0.2-1.6,0.2-2.4l0.3-1c0.2-0.7,0.3-1.5,0.4-2.3c0.2-1,0.6-1.8,0.8-2.6c0.8-1.9,1.7-3.8,2.6-5.7
	c1-1.6,2.1-3.2,3.2-4.9c1-1.3,2.1-2.6,3.1-3.8c0.2-0.4,0.4-0.7,0.6-1l2-2.3c1.5-1.9,3.2-3.4,5-5.1c-0.3,0-0.6,0-0.6,0.1
	c-0.3,0.3-0.6,0.6-0.8,0.9H388c-1.1,0.7-1.6,1.9-2.7,2.6c0-0.2-0.1-0.3,0-0.4c1.3-1.3,2.4-2.6,3.8-3.8c1-0.7,2-1.5,2.9-2.2
	c1-0.7,2-1.3,3.1-1.9l0.6-0.4c0.1,0.1,0.2,0.2,0.4,0.3c4-2.8,8.5-4.7,13.2-6.4c3.1-1.2,6.4-1.9,9.8-2.4c0.1-0.2,0.3-0.4,0.4-0.7
	c1.5,0.1,2.8-0.4,4.3-0.4c0.7-0.4,1.6-0.1,2.3-0.2c1.9-0.4,3.8-0.2,5.6-0.2c0.6-0.1,1,0.1,1.6,0.2s1,0,1.6,0.2s1.3,0.2,2,0.3
	c1,0.1,1.9,0.4,2.7,0.7c1,0.4,1.8,0.7,2.7,1.2c1.5,0.7,2.8,1.5,4.2,2.4c0.8,0.7,1.9,1.3,2.8,1.9c1,0.6,1.8,1.2,2.6,1.7
	c1.1,0.7,1.9,1.7,2.9,2.4c1.4,0.9,2.1,1.9,3.1,2.9c1.4,1.4,2.6,2.9,3.6,4.5s2.2,3.2,2.7,5c0.6,0.9,0.8,1.8,1.3,2.8
	c0.4,1,0.8,1.9,1,2.9c0.3,0.9,0.6,1.7,0.7,2.6c0.1,0.4,0.2,0.7,0.2,1c0.1,0.3-0.1,0.7,0.3,1v0.3c-0.1,1.2,0.4,2.4,0.2,3.6
	C468.1,44.8,468.5,45.4,468.5,46.1z M349.2,114.2c-0.1,0-0.2,0-0.3,0c0,0.3,0,0.6,0.1,0.9c0,0.4-0.2,0.7,0.2,1.2L349.2,114.2
	L349.2,114.2z M349.6,108.5c-0.2-1.2,0.4-1.8,1.1-2.5C350.3,106.8,349.9,107.7,349.6,108.5z M356.8,100.7c0.1-0.1,0-0.3,0-0.4
	c-1.6,1.3-2.5,2.9-3.6,4.4c0.4,0.4,0.6,0,0.7-0.2C354.9,103.2,355.6,101.8,356.8,100.7z M355.5,116.4c-0.1,0-0.1,0-0.2,0v1
	c0.1,0,0.1,0,0.2,0V116.4z M355.5,115.8c0.3-1.2,1-2.1,1-3.5c-0.2,0.2-0.4,0.3-0.4,0.4c-0.2,0.7-0.3,1.4-0.6,2.1
	C355.5,115.1,355.5,115.4,355.5,115.8z M460.1,52.6l0.7-2.4c0.2-0.7,0.3-1.6,0.6-2.5c0.1-0.7,0-1.6,0-2.5c0.1-0.7,0.2-1.5,0.2-2.4
	c0-0.7-0.3-1.4-0.2-2.2c0.2-1.7-0.3-3.4-0.2-5.1c0-0.1,0-0.3-0.1-0.3c-0.3-0.3-0.1-0.7-0.2-1s-0.2-0.7-0.2-1c0-1-0.4-1.8-0.6-2.7
	c-0.7-2.1-1.7-4.1-2.7-6.1c-1-2.1-2.7-3.6-4.5-5.1c-1.5-1.2-3.1-2.1-4.7-3.2c-0.8-0.6-1.7-1.2-2.7-1.5c-1.7-0.7-3.4-1-5.2-1.3
	c-0.3,0-0.7-0.1-1-0.3c-0.2-0.2-0.3-0.3-0.6-0.4c-0.8-0.3-1.8-0.4-2.7-0.4h-2.4c-0.8,0.1-1.6,0.2-2.4,0.3c-0.6,0-1.4,0.1-2-0.3
	c-0.3,0.2-0.6,0.3-0.8,0.4c-0.2-0.1-0.4-0.2-0.5-0.2l-3.7,0.4v0.1c0,0,0.1,0.1,0.2,0.1c0,0,0.1,0.1,0.3,0.1c-0.8,0.4-1.6-0.4-2.4,0
	l0.7,0.4c-0.4,0-0.7,0.1-0.8-0.1c-0.3-0.2-0.6-0.1-1-0.1c-0.1,0-0.1,0-0.2,0.1l0.6,0.2c-0.3,0.1-0.6,0.2-0.7,0
	c-0.3-0.2-0.7-0.2-1-0.1c-0.6,0.4-1.3,0.3-1.8,0.4c-2.5,0.9-5,1.7-7.4,2.8l-3.1,1.5c-0.1,0-0.2-0.1-0.4-0.1l0.4-0.4
	c-0.5,0.1-0.8,0.2-1.1,0.3c0.1-0.2,0.2-0.3,0.2-0.4c-0.4-0.1-0.6,0.2-0.7,0.4h0.6c-0.2,0.5-0.7,0.6-1.3,0.7c0.1-0.2,0.2-0.3,0.2-0.4
	c-0.6,0.1-1,0.2-1.3,0.7c-0.4,0-0.7,0.3-1,0.4l-3.5,2.1c-0.6,0.4-1.4,0.7-1.9,1.2c-1.5,1.2-3.1,2.2-4.4,3.5c-0.6,0.4-1.3,1-1.8,1.5
	c-0.2,0.3-0.3,1-0.6,1c-0.6,0.1-0.6,0.6-1,1c-0.2,0.3-0.3,0.7-0.5,1c0,0.1-0.1,0.2-0.2,0.3c-1.1,1.2-2.1,2.5-3.1,3.8
	c-0.6,0.6-1,1.3-1.3,1.8c-0.3,0.7-0.5,1.3-1.4,1.6c0.2,0.2,0.3,0.4,0.4,0.6c-0.6,0.4-0.8,1.2-1.6,1.5v1c-0.2,0.1-0.3,0.1-0.4,0.1
	c-0.3,0.7-0.7,1.3-1,1.9c-0.2,0.3-0.3,0.7-0.3,1c0,0.4-0.2,0.9-0.6,1.3c0.1,0.4,0.2,0.9,0.2,1.2c-0.4,1.3-0.8,2.5-1.1,3.8l-0.3,1.3
	c0,0.4,0,1-0.2,1.5c-0.2,0.4-0.1,1-0.3,1.3c-0.5,1.3-0.4,2.7-1,4.1c0.1,0.4-0.3,0.9-0.3,1.3c0,0.5-0.1,0.9-0.2,1.5
	c-0.2,0.6-0.1,1.3-0.2,1.8c-0.2,0.7-0.2,1.3-0.3,2c-0.1,1-0.1,2-0.2,2.9c-0.2,1.5,0,2.9-0.3,4.2c-0.2,1.2-0.1,2.4,0,3.5
	c0.1,1.3-0.3,2.4-0.3,3.5c0.1,0.7,0.2,1.6-0.2,2.4c-0.1,0.1,0,0.4,0,0.7c0.3-0.2,0.6-0.2,0.7-0.3l0.1,0.7c0.7-0.7,1.4-1.3,2-1.9
	c0-0.3,0.1-0.6,0.5-0.7V81c0.4-0.1,0.6-0.4,0.6-0.7h-0.3c0.1-0.4,0.2-0.6,0.8-0.7l0.7-0.6c0.4-0.5,0.7-1,1.1-1.5
	c0.6-0.9,1.4-1.7,2.1-2.6c0.7-1,1.7-1.9,2.3-3.1c0.6-0.7,1.4-1.5,1.9-2.2c1.4-2.1,3.1-3.9,4.4-6c0.7-1,1.6-1.9,2.1-2.9
	c0.2-0.5,0.4-1,1-1.3c0.2-0.1,0.4-0.2,0.6-0.3c0.1-0.2,0.1-0.4-0.2-0.4c0-0.7,0.5-1.2,1-1.6c1-1.2,1.7-2.4,2.6-3.5
	c1-1.2,1.6-2.5,2.6-3.5c0.7-0.6,1.4-1.3,1.8-2c0.7-1.5,2-2.9,2.8-4.4c1-1.5,2-2.9,3.1-4.4c0.3-0.3,0.6-0.7,1-0.7
	c0.2,0,0.4-0.2,0.6-0.4c0.3-0.4,0.6-1,1-1.5c1.1-1.6,2.2-3.2,3.4-4.8c1.5-1.8,2.9-3.5,4.4-5.2c1-1.3,2-2.6,3.1-3.8l2.1-2.6
	c0.5-0.6,1-1,1.7-1.6h1.1c-0.1,0.1-0.2,0.2-0.2,0.2l0.7,0.7c0.1,0,0.3,0,0.4,0c0.7,0.3,0.4,0.7,0.6,1.2c0.1-0.1,0.3-0.1,0.6-0.3
	c0.1,0.4,0.3,0.7,0.4,1c0.2,0,0.4-0.1,0.8-0.3c-0.2,0.4-0.4,0.5-0.4,0.7c-0.1,0.2,0,0.4,0,0.7c0.4,0.3,0.5,0.7,1,1
	c-0.1,0.3-0.3,0.5-0.4,0.7l0.2-0.2c0,0.2,0.1,0.4,0.1,0.4c0.1,0,0.2,0.1,0.2,0.1c0.2-0.2,0.3-0.4,0.4-0.7c0,0.3,0.1,0.4,0,0.4
	c-0.3,0.4-0.5,0.7-1,1c-1.1,1-2.1,2.3-3.1,3.5c-1,1.3-2.1,2.4-3.1,3.6c-1.1,1.5-2.4,3.2-3.6,4.6c-1.3,1.5-2.2,3.2-3.4,4.8
	c-1,1.4-2.1,2.8-3.1,4.1c-0.1,0.2-0.3,0.3-0.6,0.6c0.1-0.4,0.2-0.4,0.2-0.6l3.2-4.6c0.3-0.5,0.7-1,1-1.6c-0.2,0.1-0.5,0.3-0.6,0.6
	c-0.6,0.7-1.1,1.3-1.7,2c-0.3,0.7-1,1-1.4,1.6c-0.8,1.3-2,2.5-2.8,3.8c-0.7,1.3-1.8,2.5-2.6,3.8c-0.8,1.3-1.9,2.5-2.7,3.8
	c-1.7,2.6-3.6,5-5.6,7.4c-0.8,1.2-1.9,2.3-2.5,3.6c-0.1,0.1-0.2,0.2-0.2,0.3c-0.7,0.6-1,1.4-1.5,2.1c-1,1-1.7,2.3-2.5,3.5
	c-1,1.5-2.2,3.1-3.4,4.5c-0.1,0.1,0,0.3,0,0.7c0.3-0.4,0.6-0.5,0.8-0.7c0.8-1,1.5-2.2,2.4-3.2c0.6-0.7,0.8-1.6,1.8-2.1
	c0.2,0.4-0.3,0.7-0.6,1c-0.6,0.9-1,1.7-1.5,2.5c-1,1.5-2.1,2.9-3.2,4.4c-0.2,0.3-0.3,0.6-0.4,1c0.6,0,1,0.1,1.4,0
	c0.4-0.2,0.7-0.2,1.1-0.2c0.4-0.1,0.8-0.3,1.4-0.3c1.4,0,2.7,0,4.1-0.2c0.7-0.1,1.6,0.1,2.3,0.2c0.8,0.1,1.7-0.2,2.4,0.3
	c1.4-0.1,2.6,0.3,4,0.4s2.6,0.4,3.9,0.6c0.6,0,1,0.2,1.4,0.3c0.8,0.2,1.6,0.6,2.4,0.7c1.9,0.6,3.6,1.5,5.3,3.4
	c0.1,0.1,0.2,0.2,0.3,0.2c1.3,0.6,1.8,1.8,2.7,2.7c0.6,0.6,0.7,1.5,1.3,2.2c0.2,0.3,0.2,0.7,0.2,1.3c-0.4-0.4-0.6-1.2-1.3-1.5
	c-0.3,0.2-0.7,0.3-0.4,0.7c0.1-0.1,0.2-0.2,0.4-0.3v0.4c-0.2,0-0.4,0-0.7,0c-0.1-0.2-0.3-0.4-0.5-0.7c0,0.2,0,0.4-0.1,1l-0.7-1.8
	c-0.1-0.2-0.2-0.3-0.2-0.4c-0.3,0.3-0.4,0.6-0.6,0.9c-0.6-0.7-1-1.3-1.3-1.9l-0.7-0.3c-0.1,0-0.2,0-0.3,0c-0.7-0.7-1.8-0.7-2.7-1
	c-1.6-0.4-3.1-0.6-4.6-0.7H410c-0.6-0.4-1-0.2-1.5-0.3c-0.6-0.1-1-0.2-1.5-0.2c-2,0.1-4-0.2-6,0.2c-0.8,0.2-1.7,0.1-2.5,0.2
	c-1.1,0.2-2.2,0.4-3.2,0.7c-0.3,0.1-0.8,0.1-1.1,0c-0.3-0.1-0.6-0.1-1,0c-0.6,0.3-1.4,0.4-2.1,0.7l-3.1,1.2c-1,0.4-2.1,0.9-3.1,1.3
	c-1.1,0.4-2.2,1-3.2,1.5c-1.1,0.4-1.9,1.3-3.1,1.6c-0.1,0-0.2,0.2-0.3,0.3c-0.6,0.4-1,0.9-1.1,1.4c-0.8,0.6-1,1.6-1.8,2.2
	c-0.3,0.3-0.5,0.7-0.7,1c0.1,0.1,0.2,0.2,0.2,0.3c-0.7,0.9-1.5,1.7-2.2,2.7c-0.6,0.7-1,1.3-1.6,2c-1.4,1.7-2.5,3.5-3.6,5.4
	c-0.8,1.3-1.8,2.7-2.5,4.1c-0.6,0.9-1.3,1.5-2.1,2.5c-0.4-0.7-1.5-0.1-1.8-1c0.1-0.4,0.7-0.4,0.4-0.9l-1.4,1.3
	c0-0.4-0.1-0.6-0.1-0.9c-0.6,0.4-1,0.1-1.4-0.1c-0.2-0.4-0.3-0.7-0.4-1.2c-0.2,0.2-0.3,0.3-0.4,0.3l-0.2-0.2
	c-0.2,0.3-0.5,0.5-0.6,0.7c-0.3,0.7-0.6,1.5-0.7,2.4c-0.2,0.9-0.3,1.8-0.3,2.7c0,0.6,0.2,1.2,0.2,1.7c0.1,0.9,0.3,1.7,0.7,2.5
	c0.6,1.3,1.5,2.4,2.6,3.2c1.8,1.3,3.7,2.3,5.8,3.1c0.6,0.2,1.3,0.3,1.9,0.6c0.6,0.2,1.4,0,2,0.2c0.7,0.4,1.4,0.2,2.1,0.2
	c2.2,0,4.5,0.3,6.9-0.2c0.6-0.1,1.4,0.1,2.1-0.2c0.3-0.2,0.8,0,1.3-0.1c0.4,0,0.8-0.1,1.3-0.2c0.5-0.1,0.8-0.2,1.3-0.2
	c1-0.1,2.1-0.3,3.1-1c0.2-0.2,0.6-0.2,0.7-0.3c2.2-0.7,4.4-1.3,6.5-2.3c0.8-0.4,1.7-0.7,2.4-1c0.1,0,0.1,0.1,0.2,0.1
	c-0.1,0.1-0.2,0.2-0.3,0.4c0.2,0,0.4,0,0.6-0.1c0.6-0.3,1.4-0.4,1.9-0.9c0.6-0.4,1.5-0.4,1.9-1c1-0.1,1.6-0.7,2.4-1
	c1.4-0.6,2.7-1.5,4-2.2l3.9-2.1c1.3-0.7,2.4-1.5,3.6-2.1l2.8-1.8h0.1c0.1,0.2,0.1,0.3,0.2,0.6c1.9-1.3,3.8-2.6,5.6-3.8
	c-0.2-0.1-0.4-0.2-0.6-0.2c0.1-0.2,0.1-0.3,0.2-0.4l3.1-2.5c0-0.1,0.1,0,0.2-0.1l1.8-1.6c0.2-0.2,0.3-0.6,0.6-0.7
	c0.4-0.1,0.7-0.4,1-0.7c1.3-1.3,2.6-2.3,3.8-3.8c0.8-0.9,1.8-1.6,2.7-2.5c1.1-1.2,2.1-2.4,3.2-3.6l-0.3-0.4
	c3.5-4.1,6.3-8.6,9.1-13.1l0.3,0.2c0.1-0.1,0.2-0.1,0.3-0.2c0.1-0.2-0.1-0.5,0.3-0.5c0-0.2-0.1-0.4,0.2-0.4c0.1-0.2-0.1-0.4,0.3-0.4
	c0-0.2-0.1-0.4,0.2-0.5v-0.4c0.2,0,0.4,0,0.6,0l0.3,0.3c0.6-0.1,0.6-0.6,0.4-1h0.2c1.1-2.2,2.3-4.4,3.4-6.6v-0.1
	c-0.1-0.1-0.3-0.2-0.4-0.2c0.6-1.3,1.1-2.5,1.8-3.8l-0.3-0.4c0.2-0.3,0.3-0.4,0.4-0.7c0.2,0,0.2,0.3,0.4,0.1c-0.1-0.4,0.1-1-0.1-1.6
	c-0.1,0.3-0.2,0.4-0.3,0.6l-0.3-0.4c0.3-0.7,0.7-1.5,1-2.2c0.6-1.6,1.1-3.2,1.7-4.7C459.1,55.9,459.7,54.4,460.1,52.6z M357,100.1
	c1.1-0.9,1.1-0.9,1.3-1.4C358,99.1,357.2,99.3,357,100.1z M362.2,93.1c0,0.1,0.1,0.1,0.1,0.2c0.2-0.1,0.4-0.3,1-0.4
	c-0.4,0-0.6-0.1-0.7,0L362.2,93.1z M363.2,92.4c0.5,0,0.5,0,0.7-0.4C363.7,92.1,363.5,92.2,363.2,92.4z M364.7,91.5
	c0.6,0.2,0.6-0.1,0.8-0.3c0.3-0.1,0.5-0.3,0.8-0.4c-0.6-0.2-0.7,0.2-1,0.3C365.3,91.2,365.1,91.2,364.7,91.5z M369.2,86.9v-1.2
	C369,86.1,368.9,86.4,369.2,86.9z M369.3,84.4c0.1-0.6,0.3-1.2,0-1.8V84.4z M369.5,79.9c0,0.4-0.1,0.9,0.2,1.3v-2.8
	c-0.1,0-0.2,0-0.2,0C369.5,78.9,369.4,79.4,369.5,79.9z M369.7,62.4c-0.3-0.6-0.2-1,0-1.6V62.4z M369.9,59.8c-0.1-0.7-0.6-1.5,0-2.2
	c0.1-0.1,0-0.3,0-0.4c0.2-1.5,0.3-2.8,0.8-4.2c0.2-0.6,0.2-1.3,0.4-1.8l0.1,0.4c-0.2,0.7-0.2,1.5-0.5,2.2c-0.2,0.4,0,1-0.2,1.5
	c-0.3,0.7-0.2,1.5-0.3,2.4L369.9,59.8z M369.7,76.6C369.7,76.6,369.8,76.6,369.7,76.6l0.2,0.1c0-0.9,0-1.8,0-2.7h-0.2V76.6
	L369.7,76.6z M370.2,85c0.2-0.6,0.3-1.3,0-1.8V85z M370.5,81.2c0.1-0.6,0.3-1,0-1.6V81.2z M371.6,58.9L371.6,58.9l0.1-0.9h-0.1V58.9
	z M372.1,56.1c0.6-1,0.4-2,1-2.9c0.1-0.4,0-0.9,0-1.3c0.3-0.4,0.3-0.4,0-1.2v1c-0.5,0.7-0.6,1.5-0.7,2.1
	C372.2,54.5,371.8,55.3,372.1,56.1z M375.8,95.3c-1,1-1.8,2.1-2.7,3.2c0.1,0.5-0.7,0.6-0.4,1.2c1.7-1.7,3.1-3.8,4.6-5.5
	c-0.1,0-0.2-0.1-0.2-0.2L375.8,95.3z M372.9,76.3v2.3C373,77.8,373.1,77.1,372.9,76.3z M373.4,50.5L373.4,50.5l0.1-1h-0.1V50.5z
	 M373.6,49.2h0.2c0-0.3,0-0.6-0.1-0.7c0.6-0.7,0.6-1.5,0.4-2.2l-0.3,1.9C373.4,48.5,373.7,48.9,373.6,49.2z M373.8,82.3
	c0-0.3,0-0.4,0-0.7v-0.7c-0.1,0-0.1,0-0.2,0v1.5L373.8,82.3L373.8,82.3z M374,80v-5C373.7,76.7,373.8,79.1,374,80z M374.7,70.4
	c0,0.1,0,0.3,0.1,0.6c0.1-1.2,0.3-2,0.4-2.9v-1.5c0.2-0.4,0.4-0.7,0.4-1c0.1-0.4,0-0.9,0.1-1.3c0-0.4,0.1-0.7,0.2-1.2
	c0.1-1,0-1.9,0.3-2.9c0.1-0.4,0-1,0.2-1.5c0.4-0.9,0.6-1.8,0.7-2.8c0.2-1.3,0.4-2.5,0.8-3.8c0.1-0.5,0.1-1,0.2-1.5
	c-0.1-0.2-0.2-0.3-0.4-0.4c-0.1,0.1-0.3,0.3-0.3,0.4c-0.2,1.2-0.6,2.3-0.7,3.5l-0.6,3.2c-0.2,1-0.3,2.1-0.7,3.1
	c-0.1,0.4,0.1,1-0.1,1.3c-0.2,0.4-0.1,0.7-0.1,1.2c0,0.4-0.3,0.7-0.3,1.2c0,1.2,0,2.2-0.2,3.4C374.4,68.5,374.7,69.4,374.7,70.4z
	 M376.8,83.8c-0.1,0.2-0.2,0.4-0.4,0.6C376.8,84.2,377.2,84.2,376.8,83.8z M376.4,63.4c0.3,0.4,0.2,0.7,0,1.2V63.4z M376.6,40.9
	c0.7-0.6,0.8-1.2,1-1.7C377.1,39.6,376.8,40.1,376.6,40.9z M376.6,61.5c0.2,0,0.3,0,0.5,0l-0.3,1.2c-0.1-0.1-0.1-0.1-0.2-0.1V61.5
	L376.6,61.5z M377.8,82.8c0.2-0.2,0.6-0.3,0.3-0.7C377.9,82.3,377.5,82.5,377.8,82.8z M379.6,33.1c-0.2-0.1-0.4-0.1-0.7-0.1l1-1.5
	c0.1,0,0.1,0.1,0.2,0.1l-0.3,0.6c0,0.1,0.1,0.1,0.2,0.2L379.6,33.1z M379.9,31.5c0.2-0.2,0.3-0.4,0.6-0.7
	C380.6,31.4,380.3,31.4,379.9,31.5z M380.2,80l0.3-0.6C380.2,79.6,379.7,79.7,380.2,80z M381,79.1c0.1-0.2,0.5-0.3,0.2-0.7
	C381,78.6,380.6,78.7,381,79.1z M381.7,30.1l-0.8,0.7C380.8,30.1,380.8,30,381.7,30.1z M381.7,78.3c0.2-0.2,0.3-0.5,0.4-0.7
	C381.8,77.7,381.4,77.7,381.7,78.3z M386.7,35.3c-0.1,0.2,0.2,0.6-0.3,0.7v0.7c-0.1,0.2-0.3,0.4-0.4,0.7c-0.2,0.4-0.6,0.4-0.7,0.6
	c-0.2,0.1-0.2,0.4-0.3,0.6c-0.1,0.2-0.1,0.4-0.2,0.5c-0.5-0.2-0.1,0.9-0.8,0.4v1.3c-0.2,0-0.4,0-0.6,0.1c-0.1,0.2-0.3,0.4-0.5,0.7
	c-0.1-0.1-0.1-0.1-0.2-0.1l0.3-0.6c1-1.6,2-3.2,3.1-4.7c0,0,0.1,0,0.2-0.1C386.2,35.8,386.3,35.5,386.7,35.3z M384.4,26.5
	c0.1-0.7,0.6-0.9,1-1.3c0.1,0.2,0.1,0.3,0.2,0.4C385.2,26.1,385.2,26.1,384.4,26.5z M384.8,79.7c0.1-0.3,0.2-0.4,0.4-0.7
	C384.8,79.1,384.4,79.2,384.8,79.7z M385.3,72.9c-0.2,0.3-0.6,0.3-0.3,0.7C385.2,73.5,385.6,73.5,385.3,72.9z M385.2,78.6
	c0.6-0.3,0.6-0.3,0.6-0.7L385.2,78.6z M386,72.2c-0.3,0.1-0.6,0.2-0.3,0.7C386,72.6,386,72.4,386,72.2z M385.8,86.2l1.7-0.6
	c0-0.2,0-0.3-0.1-0.6C386.8,85.5,386,85.3,385.8,86.2z M386.6,71.3c-0.2,0.3-0.3,0.4-0.3,0.7C386.6,71.9,386.8,71.7,386.6,71.3z
	 M386.8,77c0.2-0.2,0.5-0.3,0.3-0.7C386.9,76.5,386.5,76.6,386.8,77z M388,33.7v1.2c-0.4,0.2-0.8,0.3-1.3,0.5
	C386.9,34.7,387.3,34.2,388,33.7z M387.4,27.3c0.4-0.6,1-0.7,1-1.3C388.1,26.4,387.4,26.6,387.4,27.3z M387.4,75.9
	c0.3-0.1,0.7-0.2,0.4-0.7L387.4,75.9z M387.6,70.4c0.2-0.2,0.3-0.4,0.3-0.7C387.6,69.9,387.3,70.1,387.6,70.4z M388.1,78.9
	c-0.1,0.2-0.5,0.3-0.2,0.7C388,79.4,388.4,79.3,388.1,78.9z M388.7,32.8v0.6c-0.2,0.2-0.6,0.3-0.7,0.4C388,33.2,388.4,33,388.7,32.8
	z M388.4,68.9c-0.2,0.2-0.3,0.4-0.3,0.7C388.4,69.5,388.6,69.4,388.4,68.9z M389.4,31.7c0,0.3,0.1,0.5,0.1,0.7
	c-0.3,0.2-0.6,0.3-0.8,0.4C388.6,32.3,389.1,32.2,389.4,31.7z M388.8,25.7c0.3-0.2,0.6-0.4,1-0.7c0.3-0.3,0.6-0.6,1-0.7
	c0.3-0.3,0.7-0.4,1-0.7l1-0.9c0.3-0.3,0.6-0.4,1-0.7c0.3-0.2,0.6-0.7,1-0.7c0.4-0.1,0.6-0.4,1-0.7c0.4-0.2,0.6-0.6,1.1-0.7
	c0.3,0,0.6-0.4,1-0.7c0.3-0.2,0.6-0.4,1-0.9C397.3,18.3,389.8,24.1,388.8,25.7z M392.2,80.8c-1.1-0.1-2,0-3.1,0.5
	C390.1,81.5,390.7,81.3,392.2,80.8z M389.8,31.3l0.7-0.7c0,0.3,0,0.4,0,0.7c-0.2,0.1-0.4,0.2-0.6,0.4
	C389.8,31.4,389.8,31.4,389.8,31.3z M390.6,21.2c0.4,0.3,0.6-0.1,0.7-0.3C390.9,20.6,390.8,21,390.6,21.2z M391.5,29.4
	c0.1,0.7-0.4,0.9-0.7,1.3C390.8,29.9,391.2,29.8,391.5,29.4z M391.9,20c0.4,0,0.5,0.1,0.6,0c0.2,0,0.3-0.2,0.4-0.3
	c-0.1-0.1-0.1-0.1-0.1-0.2L391.9,20z M393.1,19.3l0.2,0.2c0.2-0.1,0.4-0.3,0.8-0.4c-0.4,0-0.6-0.1-0.6,0
	C393.3,19.1,393.2,19.2,393.1,19.3z M394.3,68.8c0.2-0.2,0.3-0.4,0.3-0.7C394.3,68.2,394,68.4,394.3,68.8z M395.1,67.3
	c-0.2,0.2-0.3,0.4-0.3,0.7C395.1,67.9,395.3,67.7,395.1,67.3z M396,71.3c0-0.2,0.1-0.4,0.2-0.6c0.5-0.7,0.8-1.5,1.6-2
	c0.1,0.3-0.1,0.4-0.2,0.7C397,70.1,396.7,70.8,396,71.3z M397.7,68.7c0.2-0.7,0.6-1.3,1.4-1.6C398.8,67.8,398.5,68.4,397.7,68.7z
	 M399.9,122.9c-0.4,0.4-0.8,0.6-1.6,0.7C398.9,123.1,399.2,122.8,399.9,122.9z M398.8,16.9c2.7-1.5,5.5-2.9,8.3-4.1
	c0,0-0.1-0.1-0.1-0.3C404.4,13.3,399.1,16,398.8,16.9z M399.1,67.1c-0.1-0.4,0.1-0.6,0.4-0.7C399.6,66.8,399.4,67,399.1,67.1z
	 M399.5,66.5c0-0.4,0.2-0.7,0.5-0.7C400.2,66,399.9,66.3,399.5,66.5z M402.1,84.5h-2.3C400.6,84.7,401.4,84.8,402.1,84.5z
	 M400.9,21.4c-0.2,0.2-0.3,0.4-0.8,0.3C400.3,21.5,400.3,21.1,400.9,21.4z M400,65.6c0-0.3,0.1-0.6,0.6-0.7
	C400.7,65.4,400.5,65.6,400,65.6z M400.6,65c0-0.4,0.1-0.6,0.6-0.7C401.2,64.6,401,64.9,400.6,65z M401,21l0.8-0.4
	C401.7,20.8,401.6,21.2,401,21z M401.1,64.3c0-0.4,0.1-0.7,0.5-0.7C401.6,64,401.5,64.2,401.1,64.3z M401.5,52.6
	c0.1-0.3,0.3-0.4,0.3-0.7C401.5,51.9,401.3,52.2,401.5,52.6z M401.6,63.6c0-0.3,0.1-0.6,0.6-0.7C402.1,63.3,402,63.4,401.6,63.6z
	 M402.3,51.1c0.4-0.1,0.6-0.3,0.6-0.7C402.4,50.5,402.3,50.8,402.3,51.1c-0.3,0.1-0.5,0.4-0.4,0.7C402.3,51.6,402.4,51.5,402.3,51.1
	z M402.7,20.2c-0.1,0.4-0.4,0.4-0.7,0.4C402,20.2,402.3,20,402.7,20.2z M402.1,62.9c0-0.4,0.1-0.6,0.6-0.7
	C402.7,62.5,402.6,62.8,402.1,62.9z M403.1,61.4c0.2,0.6-0.1,0.7-0.5,0.7C402.7,62,402.8,61.7,403.1,61.4z M403.4,19.6
	c-0.1,0.4-0.3,0.4-0.7,0.4C402.8,19.8,403,19.6,403.4,19.6z M403.3,49.6c-0.1,0.3-0.3,0.4-0.3,0.7C403.3,50.2,403.5,50.2,403.3,49.6
	z M403.4,19.6c0.2-0.3,0.4-0.4,0.6-0.7h0.6c0.1-0.1,0.3-0.2,0.5-0.2C404.5,19.1,403.8,19.6,403.4,19.6z M404.5,48.4
	c0.2-0.3,0.3-0.5,0.3-0.7C404.5,47.8,404.4,48,404.5,48.4z M405.4,46.8c-0.2,0.3-0.3,0.4-0.3,0.7C405.4,47.4,405.6,47.3,405.4,46.8z
	 M425.1,117c-0.6-0.2-0.7,0.1-0.8,0.4c-0.5,0-0.8,0.3-1,0.7c-0.4,0-0.6,0.1-0.7,0.4c-0.6,0-0.8,0.4-1,0.7c-0.4-0.1-0.6,0.1-0.7,0.4
	c-0.4,0-0.7,0.1-0.8,0.4h-0.3c-0.6,0.4-1.3,0.7-1.7,1.2c-0.6,0.4-1.5,0.6-1.9,1.3c-0.3-0.1-0.6,0.1-0.8,0.4
	c-0.2,0.1-0.4,0.3-0.7,0.5c0.6,0.2,0.7-0.1,0.8-0.4c0.4,0,0.7-0.1,0.7-0.4c0.7,0,1.1-0.4,1.7-0.7c0.7-0.4,1.8-0.7,2.2-1.6
	c0.4,0.1,0.7-0.1,0.8-0.4c0.3,0.1,0.6-0.1,0.7-0.4c0.6,0,0.8-0.4,1-0.7c0.4,0.1,0.6-0.1,0.7-0.4c0.6,0.1,0.8-0.3,1.1-0.6
	C424.6,117.3,424.8,117.3,425.1,117z M415.9,33.4c-0.5,0.2-0.5,0.2-0.5,0.7L415.9,33.4z M415.6,38.2c0.2-0.2,0.4-0.4,0.6-0.7
	C415.7,37.8,415.7,37.8,415.6,38.2z M416.4,35.9c-0.1,0.2-0.6,0.3-0.2,0.7C416.3,36.3,416.7,36.2,416.4,35.9z M416.8,28.3
	c0-0.4,0.4-0.6,0.7-1c0,0.7-0.5,0.9-0.7,1.3V28.3c-0.2,0.4-0.2,0.4-0.7,1C416.2,28.8,416.2,28.8,416.8,28.3z M417,31.5l-0.4,0.7
	C416.8,32.1,417.3,32,417,31.5z M418,30.8c-0.6,0.2-0.6,0.2-0.6,0.7C417.5,31.1,417.8,31.1,418,30.8z M417.4,35
	c0.1-0.3,0.3-0.4,0.3-0.7C417.4,34.4,417.3,34.5,417.4,35z M418.6,33.1v0.2c-0.4,0.2-0.7,0.4-0.7,0.9c0.4-0.2,0.7-0.4,0.7-0.7
	c0.5-0.4,1-0.9,1.5-1.3c0.7-1,1.6-1.8,2.3-2.8l2.2-2.8c0.2-0.2,0.1-0.4,0.2-0.7c-0.2,0-0.3,0-0.4,0.1
	C422.6,28.2,420.6,30.7,418.6,33.1z M418.5,26.6c-0.2,0.2-0.4,0.4-0.6,0.7C418,26.7,418,26.7,418.5,26.6z M418.5,26.2l0.6-0.7
	C419.1,26,419.1,26,418.5,26.2z M419.1,38.8l-0.4,0.7C418.9,39.4,419.2,39.3,419.1,38.8z M419.9,110.6v0.2c-0.1,0.5-0.4,0.2-0.7,0.2
	C419.4,110.7,419.5,110.6,419.9,110.6z M423.4,20.3c0,0.2,0,0.4-0.1,0.5c-0.2,0.3-0.5,0.4-0.8,0.7v-0.1c-0.3,0.9-2,2.9-3.1,3.8
	c-0.2-0.5,0.3-0.6,0.4-0.9c0.6-0.9,1.3-1.5,1.9-2.4c0.1-0.2,0.4-0.4,0.7-0.7C422.5,20.9,423.1,20.7,423.4,20.3z M419.8,28.6
	c0.1-0.2,0.6-0.3,0.2-0.7C419.9,28.1,419.5,28.1,419.8,28.6z M420.8,109.7c0,0.4,0.1,0.6,0.1,0.7h-0.7
	C420.3,110.2,420.5,110,420.8,109.7z M422,109.2l0.2,0.2c-0.3,0.1-0.6,0.3-1,0.4c-0.1-0.1-0.1-0.2-0.2-0.2c0.2-0.1,0.2-0.3,0.4-0.3
	C421.6,109.2,421.9,109.2,422,109.2z M421.5,11.7c0.4,0.2,0.8,0.3,1.3,0H421.5z M423.3,11.6c0.6,0,1,0,1.5,0c0-0.1,0.1-0.1,0.1-0.1
	L423.3,11.6L423.3,11.6L423.3,11.6z M423.8,110l0.7-0.4c-0.1,0-0.1-0.1-0.2-0.2l-0.3,0.2c-0.1,0-0.2,0.1-0.3,0.2
	C423.7,109.9,423.8,109.9,423.8,110z M423.8,20.2c0-0.7,0.7-1,1.1-1.7c0,0.4,0,0.7-0.1,0.7C424.6,19.5,424.1,19.8,423.8,20.2z
	 M425.7,26.2c-0.1,0.2-0.2,0.4-0.4,0.6C425.5,26.7,426.1,26.6,425.7,26.2z M426.4,116.1c-0.1,0-0.1-0.1-0.2-0.1
	c-0.2,0.1-0.4,0.2-0.8,0.4h0.6C426.2,116.4,426.2,116.3,426.4,116.1z M425.5,11.3c0.4,0,0.8,0,1.4,0v-0.1
	C426.4,11.2,425.9,11.2,425.5,11.3L425.5,11.3z M426.8,25c0.4-0.2,0.7-0.4,0.7-0.9C427.1,24.4,426.8,24.6,426.8,25
	c-0.5,0.4-0.5,0.4-0.6,0.9C426.7,25.5,426.7,25.5,426.8,25z M427.4,115.5c-0.1-0.1-0.1-0.2-0.2-0.2s-0.2,0-0.4,0.1
	c0,0.1-0.1,0.2-0.2,0.3l0.1,0.1L427.4,115.5z M443.3,93.2c-0.1,0.1-0.2,0.2-0.3,0.2c-1.5,1.5-2.8,2.9-4.2,4.5c-0.8,1-1.7,2-2.7,2.9
	c-1.4,1.5-2.8,2.9-4.3,4.2c-0.5,0.6-1,1-1.7,1.5c-0.1,0.2-0.3,0.4-0.5,0.4c-1,0.4-1.4,1.3-2.1,1.9l1.3-0.6
	C434.1,103.7,439.1,98.7,443.3,93.2C443.3,93.4,443.3,93.4,443.3,93.2z M428,23.3l-0.4,0.7C427.9,24,428.3,23.8,428,23.3z
	 M428.8,114c-0.4,0.3-0.6,0.4-1,0.7C428.6,114.7,428.6,114.7,428.8,114z M427.9,11.2c0.3-0.1,0.6-0.1,1-0.1v-0.2c-0.3,0-0.6,0-1,0
	V11.2z M429.3,22.2c0.1-0.3,0.6-0.3,0.2-0.7C429.4,21.8,429,21.8,429.3,22.2z M430,25.3c0.1-0.3,0.6-0.3,0.2-0.7
	C430.1,24.8,429.7,24.8,430,25.3z M443.3,98.2c-0.4,0.4-1,0.6-1,1c-0.8,0.7-1.7,1.5-2.4,2.3c-1,1.3-2.3,2.4-3.6,3.5
	c-0.6,0.6-1,1-1.6,1.5c-0.1,0.1-0.1,0.3-0.2,0.6c2.8-2.4,5.2-5,7.7-7.4v-0.2C442.6,99,443.3,98.8,443.3,98.2z M436,102.5
	c-0.4,0.4-1,0.6-1.1,1.3C435.3,103.3,435.9,103,436,102.5z M435,104.5c0.6,0,0.7-0.4,1-0.9C435.5,103.9,435.3,104.2,435,104.5z
	 M437.5,102.1c0.3-0.3,1-0.5,1-1.3C438,101.3,437.5,101.6,437.5,102.1z M437.7,101l0.7-0.7c0-0.1,0-0.2-0.1-0.4
	C438,100.3,437.6,100.4,437.7,101z M443.5,97.9c0.6-0.2,0.6-0.2,0.6-0.7L443.5,97.9z M444.2,98.1c-0.2,0.4-0.7,0.4-0.6,1.3
	C443.9,98.8,444.6,98.8,444.2,98.1z M443.7,93c0.2-0.2,0.3-0.4,0.4-0.6C443.8,92.5,443.3,92.6,443.7,93z M445.8,93
	c-0.4,0.4-0.7,0.9-0.8,1.3C445.4,94,445.8,93.7,445.8,93z M445.6,87.5c0-0.2,0-0.4,0-0.7h-0.4c0,0.3,0,0.4,0,0.7H445.6z M446.3,86.4
	c0-0.2,0-0.4,0-0.7h-0.4c0,0.2,0,0.4,0,0.7H446.3z M446.3,92.2c-0.2,0.3-0.4,0.4-0.4,0.6v0.1C446.2,92.8,446.5,92.7,446.3,92.2z
	 M447.8,92.7c-0.1,0.3-0.5,0.3-0.2,0.7C447.7,93.3,448.1,93.2,447.8,92.7z M450.5,78.9h-0.2c-0.1,0.2,0.1,0.4-0.3,0.4v0.5
	C450.6,79.7,450.5,79.3,450.5,78.9z M451.4,92c0.2,0.4-0.1,0.4-0.3,0.7C450.9,92.3,451.3,92.2,451.4,92z M452.1,90.8
	c0.3,0.5-0.1,0.6-0.4,0.7L452.1,90.8z M453.4,89.3c-0.2,0.4-0.5,0.7-0.7,1C452.6,89.9,452.8,89.5,453.4,89.3z M454,88
	c0.4,0.4-0.1,0.4-0.4,0.6C453.7,88.4,453.8,88.2,454,88z M458.8,79.1c0.4,0.7-0.3,1.2-0.4,1.7C458,80,458.8,79.7,458.8,79.1z
	 M458.6,75.8c-0.1,0.4-0.5,0.7-0.2,1.2C458.4,76.6,459,76.3,458.6,75.8z M459.5,74.3c-0.3,0.3-0.6,0.6-0.3,1.2L459.5,74.3z
	 M462.4,68.1c-1,1.9-2,3.8-2.6,5.8c1-1.7,1.8-3.5,2.6-5.3V68.1z M460,57.6c0.1-0.5,0.2-0.9,0.2-1.3C459.8,56.9,459.8,56.9,460,57.6z
	 M461.6,50.5c-0.4,1.9-1,3.8-1.3,5.7c0.1-0.2,0.3-0.3,0.3-0.5c0.4-1.4,0.7-2.9,1.1-4.4c0.1-0.2,0-0.6,0-0.9L461.6,50.5L461.6,50.5z"
	/>
<path class="st1" d="M506.3,79.6c-0.3,0.4-0.4,1-0.8,1.3c-0.6,0.7-1.1,1.3-1.6,2.1c0,0.1-0.1,0.2-0.1,0.2c-1.1,0.5-1.4,1.5-2,2.3
	c-0.6,0.7-1.1,1.6-1.8,2.4c-0.6,0.7-1.3,1.6-2,2.4c-1.1,1.3-2.3,2.7-3.6,3.9c-0.4,0.4-0.8,0.9-1.3,1.3c-1.3,1.3-2.7,2.3-4.3,3.2
	l-3.5,1.9c-0.4,0.2-1,0.6-1,1c-0.6,0.7-1.7,0.5-2.4,1c-0.2,0.2-0.7,0.2-1.1,0.3c-0.7,0.1-1.5,0-2.2,0.1c-0.7,0.2-1.5,0.1-2.2,0.2
	c-0.7,0-1.6,0.1-2.3-0.1c-1.1-0.2-2.4-0.2-3.4-1c-0.2-0.2-0.6-0.2-1-0.3c-1-0.4-1.9-1-2.7-1.6c-1.6-1-2.8-2.2-4.2-3.4
	c-0.6-0.6-1.1-1-1.4-1.7c-0.1-0.2-0.4-0.3-0.6-0.4c0.2-0.3,0.3-0.4,0.4-0.7c-0.5-1-1-2.3-0.8-3.6c0.1-0.2,0-0.4-0.1-0.6
	c-0.2-0.5-0.1-1,0-1.5c0.2-0.7,0.4-1.6-0.1-2.4v-0.6c0.2,0,0.3-0.1,0.6-0.1v-1.3c-0.1-0.4-0.2-0.7-0.3-1.3c0.2,0,0.3-0.1,0.6-0.2
	c-0.1-0.4-0.2-1-0.2-1.5c0-0.1,0.2-0.1,0.3-0.1c0.2-0.4,0.1-0.9-0.2-1.3l0.6-0.5c-0.1-0.1-0.1-0.2-0.3-0.4c0.2-0.2,0.4-0.4,0.6-0.7
	c-0.1-0.2-0.3-0.4-0.6-0.6l1-2.5c0.4,0.4,0,0.7-0.1,1.2c0,0.3-0.1,0.6-0.2,1c0.3,0.1,0.4-0.2,0.5-0.3c0.4-1.9,1.5-3.6,2.5-5.3
	c0.7-1.3,1.5-2.6,2.6-3.8l3.4-3.8c0.7-0.7,1.5-1.5,2.2-2.2c0.4-0.4,1-0.7,1.6-1c-0.7-0.1-1.1,0.2-1.5,0.5c-0.7,0.7-1.5,1.3-2.4,1.9
	h0.1c1.1-1.2,2.3-2.3,3.9-3.2c0.7-0.4,1.4-1,2.1-1.5c1.1-0.7,2.5-1.2,3.9-1.5c1.1-0.3,2.3-0.5,3.5-0.6c1.1-0.2,2.4-0.3,3.6,0.1
	c0.6,0.2,1.3,0.2,1.9,0.3c1.1,0.1,2.2,0.4,3.2,0.7c0.7,0.2,1.4,0.4,2.2,0.7l1.6,1.5c0.7,0.7,1.4,1.5,2.1,2.2
	c0.6,0.6,0.6,1.3,0.4,1.9c-0.3,0.9-0.6,1.7-0.8,2.6c0,0.1-0.2,0.3-0.4,0.6c0.1-1.3,0.7-2.3,0.7-3.5c-0.7,0.2-0.4,0.7-0.6,1.2
	c-0.1,0-0.3,0.1-0.5,0.1l0.3,0.7c-0.1,0.1-0.3,0.1-0.4,0.2c0,0.1,0.1,0.3,0.1,0.4s-0.1,0.4-0.2,0.7c-0.6,1.3-1.5,2.6-2.3,3.9
	c-0.3,0.4-0.6,0.7-1.3,1c0-0.3,0-0.4-0.1-0.6c1.3-1.2,1.6-2.8,2.6-4.1c-0.1-0.1-0.2-0.1-0.3-0.3c0.4-1,1-2.1,1.1-3.5
	c-0.3,0.3-0.6,0.5-0.5,0.6c0.1,0.7-0.4,1.2-0.6,1.6c-0.3,0.6-0.4,1.2-0.8,1.6c-0.6,0.7-1,1.5-1.5,2.3c-0.3,0.7-1,1.3-1.5,1.9
	c-0.7,0.7-1.4,1.5-2.1,2.2c-1.1,0.7-2,1.7-3.1,2.4c-0.5,0.3-1,0.4-1.5,0.7c-0.8,0.3-1.5,0.9-2.4,1c0,0-0.1,0.2-0.3,0.4
	c1-0.3,1.8-0.7,2.6-1c0.7-0.3,1.4-1,2.6-1c-1,1-2,1.5-3.1,1.8c-1,0.4-2,0.9-3.1,1.3c0.2,0,0.4,0.1,0.6,0c1-0.4,2.3-0.3,3.2-0.7
	c0.9-0.4,2-0.9,2.9-1.3c1-0.7,2.1-1.2,2.8-2h0.8c-0.7,0.4-1.4,1-1.9,1.5c-0.5,0.6-1.5,0.7-1.7,1.5c-0.4,0.3-1,0.4-1.5,0.7
	c-1.1,0.6-2.3,1-3.6,1.5c-0.4,0.1-0.8,0.3-1.3,0.4c-0.4,0.1-1,0.1-1.3,0.3c-0.4,0.3-1-0.1-1.3,0.4c-0.6-0.1-1.1,0.2-1.7-0.2
	c-0.3-0.1-0.6-0.1-1-0.2c0.3-0.1,0.6-0.1,1-0.1c0-0.1,0-0.2,0.1-0.4H476c0-0.1,0-0.2,0-0.2c0.1-0.1,0.3-0.1,0.4-0.2
	c-0.6-1-1.7-1.3-2.8-1.7c0.3-0.1,0.6-0.3,1-0.4c-0.6-0.1-1-0.1-1.4-0.1c1.4,0,2.4-1,3.9-0.9c-0.2,0.2-0.4,0.3-0.6,0.4
	c-0.8,0-0.8,0-1.5,0.4c0.4-0.2,1-0.3,1.5-0.4c0.8,0.1,1.6-0.4,2.4-0.6c1.5-0.4,2.8-1,4.2-1.6c0.7-0.3,1.4-0.7,2.2-1.2
	c0,0.1,0.2,0.2,0.4,0.3l0.3-0.3c0.4-0.4,0.8-0.7,1.3-1.2c0.4-0.3,0.7-0.7,1.3-1c0.6-0.2,0.7-0.7,1.1-1c1-0.9,1.8-2,2.4-3.2
	c0.5-0.9,0.5-0.9,0.5-1.6c0.6-1,1-2,1.3-2.9c0.2-0.6-0.2-1-0.6-1.6c-0.6,0-1.5-0.2-2,0c-1,0.4-1.9-0.1-2.8,0.4l-0.4-0.6
	c-3.2,1-6.1,2.7-9,4.5c0,0-0.1-0.1-0.4-0.2l-2.2,1.5c0.4-1,1.5-1.3,2.1-1.9c0.5-0.7,1.5-1,2.2-1.5c0.7-0.6,1.5-1,2.1-1.5
	c-0.3,0.1-0.6,0.3-1,0.4c-0.1,0-0.2-0.1-0.3-0.2c-1.1,0.7-2.4,1.5-3.6,2.4c-1,0.7-1.9,1.5-2.7,2.4c-1.6,1.6-3.1,3.2-4.3,5.2
	c-1,1.3-1.8,2.7-2.5,4.1c-0.5,1-1,1.9-1,3.4c0.6-1,0.8-1.8,1.3-2.5l1.3-2.5c0.1-0.2,0.4-0.3,0.6-0.4c0,0.4-0.3,0.7-0.6,1l-2.3,4.7
	c0.2,0.4,0.4,0.6,0.2,1c-0.7,1.3-0.8,2.6-1.3,3.9c-0.3,1.3-0.5,2.6-0.5,3.9c0,0.4-0.3,0.9-0.2,1.2c0.4,1,0.2,2.1,0.3,3.2
	c0.1,0,0.2,0,0.4,0.1c0,0.2,0.1,0.6,0.1,0.9h0.2c0-1,0-2,0-2.9l0.1-0.1c0.1,0.2,0.1,0.4,0.1,0.6v1.9c0,0.6,0.2,1.2,0.3,1.6
	c0.2,0.7,0.2,1.7,1,2.4c0.1,0,0,0.3,0,0.4l1,0.9c0.2,0,0.3,0,0.5,0c0.1,0.1,0.1,0.3,0.2,0.4c0.1,0,0.1,0.1,0.2,0.1
	c2.1,0,4.1-0.4,6.2-0.3c0.3,0.1,0.7-0.1,1-0.2l2.9-1.5c1-0.6,2.5-1,3.6-1.6c2.5-1.2,5.8-4.1,7.6-5.5c0.1-0.1,3.6-4.7,3.6-4.7
	c0.4-0.4,1-1,1.1-1.5c0.2-0.4,0.4-0.9,0.8-1.3c0.3-0.3,0.6-0.6,0.6-1c0.2-1,3.2-3.6,3.8-4.6c0.7,0.4,0.4,0.2,0.1,0h0.4
	c0.1,0.1,0.1,0.2,0.1,0.4c0.1,0.3-0.1,0.4-0.2,0.7c-0.8,1.6-1.7,3.2-2.8,4.7l-1.8,2.3c-1,1.2-2,2.3-2.9,3.5c-0.4,0.6-1,1-1.5,1.6
	c-0.6,0.7-1.4,1.5-2.1,2.1l-2.2,2.1c-1.1,0.9-2.3,1.7-3.7,2.4c0.6,0.3,1-0.1,1.3-0.3c2-1.2,3.8-2.6,5.3-4.2c0.7-0.7,1.4-1.3,2.1-2.1
	c0,0.3,0.1,0.4,0,0.4c-1.8,1.9-3.7,3.8-5.6,5.5c-0.6,0.4-1.4,0.7-2,1.3c-0.2,0.1-0.4,0.3-0.6,0.4c-0.6,0.1-1,0.1-1.4,0.7l-0.8,0.4
	c0.6,0.2,0.7-0.1,0.8-0.4c0.6-0.1,1.1-0.2,1.4-0.7c0.8-0.1,1.3-0.7,1.9-1c0.4-0.2,0.7-0.4,1-0.7c0.1-0.1,0.3,0,0.4,0l-0.3,0.3
	c0.1,0.1,0.3,0.2,0.3,0.1c0.8-0.7,1.7-1.3,2.3-2.1c0.5-0.7,1.1-1.2,1.8-1.7l0.3-0.7c1.1-1,1.8-2.2,2.6-3.3c0.1-0.4,0.6-0.6,0.6-1
	c0.1-0.4,0.6-0.7,0.8-1c0.3-0.4,0.1-0.7,0.3-1.2c0.5-0.9,1.1-1.6,1.7-2.5l1.3-1.7c0.6-1.2,1.3-2.3,2-3.5h0.6c0.1,0.4,0.2,0.7,0.3,1
	c-0.2,0.7-1,1.3-1,2.4l1.9-3.4c0.1,0.3,0.1,0.4,0.2,0.6h0.5L506.3,79.6z M462.6,82.5c0,0-0.1,0-0.2,0c0,0.3,0.1,0.6,0.1,0.9h0.1
	V82.5L462.6,82.5z M467.4,89.5v-1.8C467.7,88.3,467.6,89,467.4,89.5z M467.7,67.1c-0.2-0.6,0.2-0.7,0.6-0.7L467.7,67.1z M468.1,66.3
	c0.2-0.4,0.2-0.4,0.7-1C468.8,65.9,468.8,65.9,468.1,66.3z M469.2,65.1c0.1-0.2,0.1-0.4,0.2-0.4c0.2-0.2,0.4-0.4,0.8-0.7
	C470.2,64.6,469.6,64.7,469.2,65.1z M469.6,67.7c0.7-0.3,1-0.9,1.4-1.6C470.2,66.5,469.9,67.1,469.6,67.7z M471,66
	c0.6-0.5,1.3-1,1.8-1.5l1.6-1.7c-0.3,0-0.4,0-0.6,0.1l-2.8,2.9V66z M472.2,72.3c-0.2,0.7-0.6,1.3-1.3,1.8
	C471.2,73.4,471.6,72.8,472.2,72.3c0.2-0.7,0.4-1,1-1.3C473.1,71.6,472.7,71.9,472.2,72.3z M475,60.6c0.3-0.3,0.4-0.4,0.7-0.6
	C475.1,60.1,475.1,60.1,475,60.6z M481.7,79.2c-0.8,0.2-1.6,0.4-2.2,0.7c0,0.1,0.1,0.2,0.1,0.4C480.2,79.9,481,80,481.7,79.2z
	 M483.9,99.5c-0.4,0-0.6-0.1-0.7,0l-0.3,0.3c0,0.1,0.1,0.1,0.1,0.2C483.1,99.8,483.5,99.7,483.9,99.5z M488.4,76.1
	c0.3-0.7,0.6-1,1.4-1.2C489.2,75.2,489,75.8,488.4,76.1z M490.2,68.9c-0.1,0.4-0.1,0.4-0.7,0.9C489.7,69.3,489.7,69.3,490.2,68.9z
	 M490.2,68.9c0.1-0.4,0.1-0.4,0.7-1C490.9,68.5,490.9,68.5,490.2,68.9z M497,68.7c0.3-0.4,0.5-1,0.8-1.4l0.2,0.2
	c-0.1,0.2-0.2,0.4-0.3,0.7c-0.1,0.2-0.2,0.4-0.4,0.6L497,68.7L497,68.7z M501.1,84.8c-0.3,0.1-0.6,0.2-0.4,0.7L501.1,84.8z
	 M501.8,83.5c-0.6,0.2-0.6,0.6-0.6,1C501.7,84.4,501.8,83.9,501.8,83.5z M502.5,82.3c-0.4,0.3-0.6,0.7-0.6,1
	C502.3,83.1,502.5,82.8,502.5,82.3z M502.3,77.1L502.3,77.1c-0.2,0-0.2,0-0.3,0C502,77,502.1,77,502.3,77.1z"/>
<path class="st1" d="M541.1,68.8c-0.2,0-0.4-0.1-0.6-0.2c-0.1,0.2-0.3,0.4-0.3,0.6c0,0.7-0.3,1.2-0.6,1.7c-0.6,1.7-1.6,3.4-2.8,4.8
	c-0.6,0.6-1,1.2-1.6,1.8c-0.3-0.2-0.4-0.4-0.7-0.6c-0.4,0.3-0.8,0.7-1.4,1.2c-0.2-0.3-0.4-0.6-0.5-0.9c0.7-1,1.7-2,2.6-3.2
	c-0.1-0.1-0.1-0.2-0.3-0.3c1.1-1.5,1.8-3.2,2.4-4.8c0.1-0.3,0-0.6,0-1.2c-1,1.9-1.5,3.6-2.6,5.2c-0.2,0.3-0.4,0.4-0.6,0.6
	c-0.5,1-1.3,1.8-2.1,2.5c0.1-0.6,1-1.6,2-2.4c0-0.1,0-0.3-0.1-0.5c0.4-0.1,0.7-0.2,0.6-0.7l-0.6,0.7c-0.5,0.5-1,1-1.6,1.6
	c-0.2,0.4-0.6,0.9-1.3,1c-0.2,0-0.4,0.3-0.7,0.4l0.3-1c-0.2,0.1-0.3,0.2-0.4,0.3c-0.1-0.3-0.2-0.6-0.2-0.9c0.7-0.9,1.5-1.8,2.4-2.9
	c0,0,0.2,0,0.4-0.1c0.8-1.3,1.5-2.7,1.9-4.2c0.6-1.8,1.1-3.8,0.7-5.8c-0.6-0.6-1.8-0.4-2.6-1c-1,0.2-2-0.2-3.1,0.2
	c-0.2,0.1-0.5,0.1-0.8,0.1c-0.5,0.1-1-0.1-1.6,0.2c-0.2,0.1-0.7-0.1-1.1-0.2c-1.1,0.4-2.2,1.2-3.2,1.9l-1.8,1.5
	c-1.3,0.9-2.1,2.9-2.4,4.5c-0.2,0.9-0.2,1.7-0.2,2.6l0.3,0.2c0.1,0,0.2,0,0.2,0.1c-0.2,1.3,0.4,2.6,0.8,3.8c0.5,1.5,1.3,2.7,2.1,3.9
	c0.6,0.7,0.8,1.5,1.3,2.4c0.3,0.7,0.7,1.6,1,2.5c0.1,0.2,0.2,0.4,0.1,0.6c-0.4,0.4-0.1,0.7,0,1c0.3,1,0.6,2,0.6,3.1v1.9
	c0.1,1.3-0.6,2.5-1,3.8s-1.3,2.3-1.7,3.5c0,0.1-0.1,0.2-0.1,0.3c-1,0.9-2,1.8-3.2,2.5c-1.3,0.7-2.6,1.2-3.9,1.8h-0.2
	c-0.8,0.1-1.8,0.2-2.7,0.3c-0.5,0.1-1.1,0.3-1.7,0.2c-1.5-0.1-3.1,0-4.4-0.7c-1,0.2-1.6-0.4-2.5-0.4c-0.4,0-0.8-0.3-1.1-0.6
	c-1-0.9-2.3-1.4-3.6-2.2c-0.3-0.2-0.6-0.4-1-0.7c-0.5-0.4-1-1-1.7-1.5c-1.3-1-2-2.3-2.5-3.6c0-0.1-0.1-0.2-0.1-0.3
	c0-1.5-0.5-3.1-0.2-4.6c0.1-1,0.3-1.8,0.8-2.7c0.1-0.4,0.4-0.7,0.6-1.2c0.8-1.9,2.4-3.2,4.2-4.5c0.1,0,0.3,0,0.4-0.1
	c1-1,2.3-1.5,3.6-1.8c0.1-0.1,0.1-0.1,0.1-0.2l3.6,0.6c0.7,0.6,1.9,1.2,3.1,1.5l-0.3,0.7c0.7,0,1.3,0,1.9,0v0.2
	c-0.3,0.2-0.6,0.3-1,0.4c0.2,0,0.4,0.1,0.6,0.2c-0.4,0.2-0.8,0.3-1.3,0.4v0.1c0.7,0,1.5,0,2.3,0l-0.3,0.7c-0.6,0-1,0-1.4,0
	c-2.1,0.9-3.9,1.7-5.6,2.9c0.1-0.1,0.1-0.3,0.2-0.4c0.6-0.4,1.3-1,2-1.6c-0.7,0-1.3,0.4-1.6,0.7c-1,0.6-2,1.2-2.5,2.1
	c-1,0.7-1.1,1.7-2.1,2.5c-0.3,0.2-0.5,0.6-0.6,1c0,0.3,0.2,0.6,0.3,1c0.2-0.3,0.3-0.5,0.6-0.6c-0.1-0.7,0.1-1,0.7-1.3
	c-0.2,0.5-0.4,1-0.7,1.5v-0.1c-0.1,1.5-0.4,2.7-0.3,4.1c0,0.2,0,0.4,0.1,0.7c0.2-0.6,0.2-1.3,0.1-1.9c0-0.9,0.1-1.7,0.8-2.5
	c0.2-0.3,0.2-0.7,0.8-1c-0.3,0.9-0.6,1.5-0.8,2.2c-0.3,0.7-0.2,1.5-0.3,2.3c-0.1,0.9,0.3,1.5,0.3,2.2c0.2,0.4,0.4,0.6,0.6,0.9
	c2.3,0.2,4.6,0.1,6.7-0.7c2.4-0.9,4.8-1.9,6.6-3.5c0.3-0.7,0.6-1.3,0.8-1.7c0.6-1,0.8-2.1,1.1-3.2c0.4-1.5,0.3-2.9,0.2-4.2
	c-0.1-1-0.2-1.8-0.6-2.8l-1-2.5c-0.6-1.6-1.7-3.1-2.6-4.5c-0.6-1-1-2.1-1.4-3.2c-0.4-1.3-0.7-2.6-0.6-3.9c0.1-0.4,0.3-0.9,0.3-1.3
	c0-0.5-0.1-1,0.2-1.3c0.2-0.3,0-0.7,0-1c0.2-0.3,0.3-0.5,0.4-0.7c0.3,0.1,0.5,0.3,0.7,0.4c-0.8,1-0.8,2.1-1,3.2
	c-0.3,1,0,2.1,0.3,3.2c0.2-1.3-0.1-2.7,0.6-3.9c0.1-1.3,1-2.4,1.4-3.6c0.1,0.1,0.2,0.2,0.4,0.3v-0.4c0.5-0.3,0.7-0.7,0.7-1.2
	c-0.4,0.3-0.6,0.7-0.7,1.2h-1c0.6-0.6,0.6-1.3,1.4-1.4c0.1,0,0.2-0.2,0.3-0.3c0.8-0.9,1.9-1.3,3.1-1.6c1-0.4,2.1-0.9,3.1-1.3
	c0.5-0.1,1-0.3,1.9-0.4c-1.1-0.2-2-0.2-2.8,0.1c-1.1,0.4-2.3,0.9-3.5,1.2c-1,0.2-1.8,0.7-2.4,1.3c-0.3,0.3-0.6,0.6-1,0.9
	c0-0.2-0.1-0.4,0-0.4c0.8-1,1.8-1.6,2.9-2.2c0.4-0.3,1.1-0.2,1.7-0.4c0.5-0.2,1-0.6,1.5-0.7c1.5-0.4,2.8-0.9,4.4-0.7
	c0.6,0,1.3-0.2,1.8-0.2c0.7-0.1,1.4,0,2-0.1c0.8,0,1.6,0.3,2.3,0.6c0.6,0.3,1.3,0.6,2,0.7c0.6,0.1,1.4,0.4,1.9,1
	c0.1-0.1,0.1-0.2,0.1-0.2c0.4,0.2,0.7,0.3,1,0.4c0.1,0,0.1-0.1,0.1-0.1l0.8,0.7c0.3,0.2,0.6,0.3,1,0.4c0.2,0.1,0.6,0.3,0.8,0.3
	c0.7,0.7,1.4,1.5,2.1,2.2C540.9,64,541.3,66.3,541.1,68.8z M494,88.8c0-1.5,1.1-2.8,1.5-4.1c-0.6,0.5-0.8,1.3-1.3,1.9
	C493.8,87.2,493.6,88,494,88.8z M494,89.3C494,89.3,493.9,89.3,494,89.3l-0.1,1.5h0.1V89.3z M495.7,86.9c-0.1,0.4-0.7,0.7-0.3,1.3
	C495.5,87.7,496.1,87.4,495.7,86.9z M496.8,90h-0.4c0,0.4,0,0.7,0,1.2c0,0.4-0.1,0.7,0.1,1.2c0.1-0.4,0.1-0.7,0.1-1.2
	C496.7,90.8,496.8,90.4,496.8,90z M499,85c-0.1-0.2-0.2-0.3-0.3-0.3c-1,0.7-2.4,3.4-2.3,4.6l1.1-2.2C498,86.3,498.6,85.6,499,85z
	 M499.2,84.1h0.7c0-0.3,0-0.4,0-0.7C499.6,83.6,499.3,83.8,499.2,84.1z M499.6,85.7c0-0.6,0.7-0.6,0.6-1.3
	C499.9,85,499.3,85,499.6,85.7z M501.5,83.1c0.4,0,0.5,0.1,0.6,0c0.2-0.1,0.3-0.2,0.4-0.3l-0.2-0.2
	C502.1,82.7,501.9,82.9,501.5,83.1z M501.7,88.6c0.1-0.2,0.2-0.4,0.4-0.6C502.5,88.5,502,88.6,501.7,88.6z M506.7,98.4
	c-0.3-0.3-0.4-0.4-0.6-0.6c-0.4,0.2-0.6,0.3-1,0.4c0,0-0.1,0-0.1,0.1c0,0,0.1,0,0.1,0.1H506.7L506.7,98.4z M505.8,83.8
	c0.5,0.2,0.6-0.1,0.8-0.4v0.1c0.2,0,0.5,0,0.7,0c-0.1,0.2-0.1,0.3-0.3,0.6c0.6-0.2,0.8-0.3,1.1-0.4c0-0.3-0.1-0.6-0.1-0.9
	c-0.6,0.2-1,0.4-1.5,0.7h-0.1C506.3,83.4,506.1,83.6,505.8,83.8z M510.9,97.1c-0.7-0.2-1,0.1-1.5,0.3c-0.4,0.1-0.8,0.2-1.3,0.4
	l-1.5,0.4c1.1,0.2,1.9-0.3,2.7-0.6C509.9,97.5,510.3,97.3,510.9,97.1z M517.1,93.4c0.4-1.2,0.8-2.2,0.8-3.4
	c-0.2,0.7-0.5,1.5-0.8,2.1c-0.3,0.9-1,1.6-1.7,2.3c-0.5,0-0.6,0.6-1,0.7c-0.4,0.2-0.8,0.2-1.1,0.4c-0.6,0.4-1.4,0.7-2,1
	c0.1,0.1,0.3,0.2,0.6,0.4C513.7,96.2,515.7,95,517.1,93.4z M514.1,96.6L514.1,96.6l-1,0.4c0.4,0,0.6,0,0.7,0L514.1,96.6z
	 M515.3,95.8c-0.2,0.2-0.4,0.3-0.7,0.4C515.1,96.2,515.1,96.2,515.3,95.8z M517.4,94.2c-0.7,0.2-1.1,0.9-1.7,1.3
	C516.5,95.4,516.8,94.7,517.4,94.2z M517.2,59.9c-0.4,0-0.6,0-0.7,0l-0.3,0.3c0,0.1,0,0.1,0.1,0.2L517.2,59.9z M518.3,97.9
	c-0.2,0.1-0.4,0.4-0.6,0.4l-0.8,0.4c0.6,0.2,0.7-0.1,0.8-0.4h0.3c1-0.6,1.9-1.2,2.3-2.2c0.1-0.1,0.3-0.3,0.6-0.4
	c0.1,0.1,0.1,0.2,0.3,0.4c0.6-0.9,1.1-1.6,1.4-2.6c0.2-0.7,0.5-1.6,0.2-2.7c-0.1,0.6-0.3,0.9-0.6,1.3c-0.4,0.7-1,1.3-0.8,2.2
	c0,0.6,0.1,1-0.5,1.5v-0.7C519.9,96,519.2,97,518.3,97.9z M525.8,60.1c-1,0-1.6,0.3-2.1,0.5c-1.3,0.6-2.4,1.3-3.5,2
	c-0.6,0.6-1.5,1-1.9,1.7c-0.1,0.2-0.1,0.4-0.2,0.9c1-1.3,2.3-2.1,3.6-3.1C522.9,61.2,524.4,60.8,525.8,60.1z M518.5,87.6v1.2
	C518.6,88.3,518.9,88,518.5,87.6z M519.3,68.1c-0.1-0.1,0.2-0.2,0.4-0.4c0.1-0.7,0.6-1.2,1-1.5l-1,1.9c-0.2,0.9-0.4,1.5-0.6,2.2
	C518.7,69.5,519.3,68.9,519.3,68.1z M519.2,61.7c0.4,0.1,0.6-0.1,0.8-0.4C519.6,61.2,519.5,61.4,519.2,61.7z M520.2,61.1
	c1.4-0.4,2.5-1,3.6-1.3v-0.1c0-0.1,0-0.1,0-0.3C522.9,59.4,521,60.3,520.2,61.1z M523,94.1l-0.2,0.7c0.6-1,1.1-1.9,1.3-2.9
	c0.2-1.4,0.1-2.9,0.1-4.5h-0.3c0,0.6,0.1,1.3,0,1.8c0,0.7-0.2,1.3-0.2,1.9C523.7,92.2,523.3,93.1,523,94.1z M527.9,59.2
	c-0.4,0-0.8,0-1.3,0v0.1C527,59.3,527.5,59.3,527.9,59.2L527.9,59.2z M531.4,72.3c-0.6,0.7-1.4,1.6-2.1,2.4
	c-0.1,0.2-0.3,0.5-0.6,0.7c-0.1-0.2-0.2-0.4-0.1-0.4c0.1-0.3,0.1-0.7,0.4-0.9c0.6-0.6,1.3-1.3,1.8-1.8c0.2-0.3,0.4-0.4,0.6-0.7
	c0.1-0.3,0.4-0.6,0.4-0.9c0-0.6,0.4-0.9,0.5-1.3c0-0.4-0.1-1,0.6-1.5c0-0.3-0.1-0.7,0.6-1v0.6c0.4,0,0.3,0.4,0.2,0.4
	C532.9,69.6,532.5,71.1,531.4,72.3z M540.8,69.2c0.3,0.7-0.1,1.2-0.2,1.6c-1.6,4.4-2.3,4.7-4.8,7.1c1-1.5,2.2-2.7,2.9-4.2
	C539.5,72.3,540.1,70.8,540.8,69.2z M536.4,78.3c0.1,0.7-0.4,0.7-0.7,1.3C535.7,78.8,536.1,78.7,536.4,78.3z M537.5,77.1
	c0.1,0.7-0.4,0.9-0.7,1.3C536.7,77.7,537.1,77.5,537.5,77.1z M538.2,76.3c0.2,0.5-0.2,0.6-0.3,0.7C537.6,76.5,538,76.5,538.2,76.3z"
	/>
<path class="st1" d="M569.3,82.6c-0.8,1.2-1.8,2.3-2.5,3.5c-0.7,1-1.5,1.9-2.3,2.9c-0.6,0.4-0.8,1.2-1,1.8c0,0.4,0,0.7-0.6,1v-0.4
	c-0.4,0.1-0.6,0.3-0.6,0.7c0.2-0.1,0.3-0.2,0.6-0.2c0,0.3-0.1,0.6-0.6,0.7c0,0.4-0.1,0.6-0.5,0.7v-0.4c-0.3,0.2-0.6,0.3-0.4,0.7
	l0.4-0.3c0.2,0.6-0.6,0.7-0.6,1.2c-0.7,0.9-1.6,1.6-2.3,2.5l-1.8,2.5c-0.8,1.3-2.6,2.9-4,3.8c-0.4,0.3-0.6,0.7-1,1h-0.6
	c-1,0.9-1.9,1.7-2.8,2.7c-0.8,0.7-1.7,1.5-2.8,1.6c-0.4,0.1-0.7,0.3-1.1,0.6c0.4,0,0.7,0.1,1.1,0.2c-1.3,0.7-2.5,0.2-3.6,0.4
	c-1.5-0.7-2.8-1.2-4.2-1.7c-0.8-0.3-1.8-0.6-2.4-1.3c-0.3-0.4-1-0.6-1.1-1c-0.3-0.4-0.7-0.7-1-1.2c-0.6-0.7-1-1.6-1.4-2.5
	c-0.2-0.4-0.2-1-0.3-1.5c-0.2-0.7-0.1-1.5-0.2-2.3c0-0.4,0.1-1,0.3-1.5c0.2-0.7,0.4-1.4,0.4-2.3c0-0.7,0.3-1.3,0.6-1.8
	c0.8-1.8,1.5-3.8,2.4-5.5c0.6-1.2,1-2.3,1.5-3.5c0.2-0.2,0.4-0.4,0.6-0.7c0.1,0,0.3,0,0.6-0.1l1.3-2.5c-0.3,0.6-0.7,1-1,1.5
	c0.1-0.3,0.3-0.6,0.5-0.9c0.6-0.7,1-1.5,1.4-2.1l1.4-2.7c-1,1.5-2.3,3.2-3.2,4.7c0.5-0.9,2-3.5,3.6-5.8c-0.1-0.1-0.1-0.2-0.2-0.4
	c0.1,0,0.3-0.1,0.6-0.2l2.7-3.8c-0.1,0.2-0.1,0.4-0.2,0.6c0,0,0.1,0,0.1-0.1c0.3-0.4,0.4-0.7,0.4-0.7v0.1c0-0.1,0.1-0.1,0.1-0.2
	c1-1.5,2.2-2.8,3.1-4.4c0.6-1,1.1-1.9,1.8-2.8c0.8-1.3,1.9-2.4,3.1-3.5c0.3,0.1,0.7,0.2,1.3,0.4c-0.3,0.1-0.5,0.2-0.8,0.4
	c0.3,0.1,0.4,0.2,0.6,0.1c0.1,0,0.2-0.1,0.3-0.2l0.8,0.4c0-0.1,0.1-0.2,0.2-0.2c0.1,0.1,0.1,0.3,0.2,0.4c0.1,0,0.2-0.1,0.4-0.2v0.6
	c-0.3,0.2-0.5,0.3-1,0.6h1.3c0.2,0.2,0.4,0.3,0.5,0.4c0.2-0.1,0.4-0.2,0.8-0.3c-0.2,0.3-0.3,0.4-0.4,0.4c0.3,0.7,0.7,1.5,1.6,1.8
	l-0.3,0.3c0.3,0.1,0.6,0.1,0.7,0.2c-0.7,1-1.1,2.1-1.8,2.9c-0.7,0.9-1.5,1.7-2,2.6c-0.6,0.9-1.4,1.6-1.8,2.5
	c-0.6,0.9-1.3,1.6-1.8,2.4c-0.6,1-1.4,1.8-2,2.7c-0.2,0.2-0.3,0.4-0.5,0.4V78c-0.1,0.2-0.2,0.3-0.3,0.4c0.1-0.1,0.2-0.2,0.3-0.2
	c0,0.2-0.1,0.4-0.1,0.5l0.6-1c0.1-0.1,0.2-0.1,0.2-0.2c0.3-0.4,0.6-0.9,1-1.3l-2.9,4.1c0,0.1-0.1,0.2-0.2,0.3
	c-1.6,2.3-3.1,4.2-2.5,3.5c0.7-1.2,1.5-2.1,2.2-3.2c0.2-0.6,0.3-1.2,1-1.6c-0.1,0.1-0.1,0.2-0.1,0.3c0.1-0.2,0.2-0.2,0.3-0.4
	c-0.1,0-0.1,0.1-0.2,0.1c0-0.3,0.1-0.5,0.1-0.7c0.3-0.4,0.6-0.9,0.8-1.3c0.1-0.2,0.2-0.3,0.4-0.4c0.2-0.3,0.3-0.6,0.6-0.9v0.3
	c0,0.1-0.1,0.1-0.1,0.2c0-0.1,0.1-0.1,0.1-0.2c0,0,0-0.1-0.1-0.3c0.6-0.3,1-0.7,1-1.3c-0.3,0.4-0.6,0.9-1,1.3
	c-0.7,0.5-1.1,1.3-1.7,1.9l-0.2,0.3c-0.7,1.3-1.6,2.5-2.2,3.8l-0.3,0.7c0,0,0-0.1,0.1-0.1c-0.1,0.1-0.2,0.2-0.2,0.3
	c-1,2.1-2.3,4.1-3.4,6.3c-1,2.1-2,4.2-2.8,6.4c-0.3,0.7-0.6,1.5-0.8,2.1l-0.6,1.6c0.3,0,0.4,0,0.6,0.1c0,0,0.1,0.1,0.1,0.2v1
	c-0.1,0.3-0.3,0.6-0.3,1c0,0.9-0.1,1.7,0.6,2.7c0.2-0.1,0.7,0.2,1.1-0.2c0.4-0.3,1-0.2,1.4-0.5c0.6-0.4,1.3-0.9,2.2-1.5
	c-0.1,0.4-0.1,0.6-0.2,0.7c-0.8,0.7-1.8,1.3-2.8,1.7c-0.4,0.1-0.7,0.3-1.4,0.4c0.3,0.1,0.5,0.2,0.6,0.2c1,0.3,1.9,0.1,2.6-0.6
	c0.4-0.4,1-0.4,1.4-0.6c0.7-0.1,1.3-0.5,1.8-0.9l1.7-1.5c0.5,0.1,0.8-0.2,1-0.4c0.5-1,1.6-1.5,2.4-2.1c0.7-0.4,1.5-1,2-1.7l2.9-3.5
	c0.7-0.7,1.7-1.5,2.1-2.4c0.1-0.1,0.1-0.2,0.3-0.6c-1.3,1-2.2,1.7-3.1,2.5c-0.1-0.2-0.1-0.4-0.1-0.6c1.9-1.5,3.1-3.8,4.6-5.7
	c-0.3-0.9,0.3-1.5,0.8-2.1c0.7-0.7,1.3-1.7,2-2.5c0.7-1,1.4-2,2.6-2.5c0.2,0,0.6,0.1,1,0.3c0.1,0.1,0.1,0.4,0.1,0.6l0.5-0.3
	c0.2,0.4,0.6,0.7,0.7,1.2c0.4-0.1,0.8-0.1,1.3-0.2L569.3,82.6L569.3,82.6L569.3,82.6z M535,93.6c-0.4,0.1-0.6,0.4-0.8,0.7
	c-0.2,0.4-0.6,1-0.4,1.7C534.6,95.4,534.6,94.3,535,93.6z M536.2,92c0.2-0.4,0.4-0.6,0.6-0.9c0.3,0.1,0.4,0.1,0.6,0.2
	c0,0,0-0.1,0.1-0.1l-0.6-0.4c0-0.1,0-0.3,0-0.4c0.7-1.5,1.3-2.9,2.1-4.4c0.7-1.3,1.5-2.5,2.1-3.8l1.3-2c0-0.2,0-0.4,0-0.6h-0.7
	c-0.6,1-1,2.1-1.7,3.2l-1.6,3.1c-0.4,1-1,2.1-1.5,3.2c-0.4,1-1.1,2.1-1.3,3.3L536.2,92z M537.1,83.2c0,0.1,0,0.1-0.1,0.2l-0.6,0.9
	c0,0.1,0,0.3,0,0.4h-0.6C535.9,84.7,536.4,84.1,537.1,83.2z M535.9,84.1L535.9,84.1C536,84,536,84.1,535.9,84.1z M538.3,92.8
	c-0.3,0.3-0.6,0.6-0.6,1c-0.3,0.4-0.4,1-0.7,1.5c-0.3,0.6-0.4,1.2,0.1,1.7C537.4,95.5,538.2,94.3,538.3,92.8z M537.1,83.1
	L537.1,83.1L537.1,83.1z M537.5,82.6c-0.1,0.2-0.2,0.4-0.3,0.4C537.1,82.8,537.2,82.8,537.5,82.6L537.5,82.6z M537.6,82.6
	L537.6,82.6c0.2-0.3,0.5-0.7,0.6-1C538,81.9,537.8,82.3,537.6,82.6z M538.1,80.9c0.1-0.1,0.1-0.2,0.2-0.3L538.1,80.9z M538.8,90.2
	c0.1-0.7,0.8-1,0.6-1.7C538.8,89.8,538.8,89.8,538.8,90.2z M542.9,74.6c0.1-0.2,0.2-0.4,0.3-0.4h-0.3V74.6z M544.1,83.8
	c0-0.1,0.1-0.1,0.1-0.2c-0.1,0-0.2-0.1-0.2-0.1c-0.2,0.3-0.6,0.6-0.6,0.9c-0.1,0.4-0.6,0.7-0.2,1C543.6,84.8,543.9,84.2,544.1,83.8z
	 M543.3,74.9L543.3,74.9L543.3,74.9L543.3,74.9z M543.6,73.6L543.6,73.6c0.2-0.1,0.4-0.4,0.4-0.5v-0.4c-0.1,0.1-0.2,0.1-0.3,0.2
	c-0.1,0-0.1,0.1-0.1,0.1L543.6,73.6L543.6,73.6z M544.2,83.6c0.2-0.6,0.4-1,0.6-1.3C544.3,82.5,544,83,544.2,83.6z M556,99.3
	c-0.8,0.7-1.7,1.5-2.5,2.2c-0.2,0.3-0.4,0.4-0.7,0.6c-0.6,0.4-1,0.7-1.6,1c-0.6,0.4-1,0.9-1.5,1.3c-0.4,0.3-0.7,0.7-1.1,1
	c-0.2,0.3-0.5,0.6-0.8,0.7c-1,0.6-2,1.3-3.1,1.8c0.8,0.1,1.4-0.4,2.1-0.7c0.1,0.1,0.2,0.2,0.4,0.3l2.4-2.1c0.7-0.7,1.5-1.3,2.2-2
	c0.5-0.4,1-1,1.7-1.3c0.4-0.2,0.8-0.4,1-0.7c0.4-0.6,1-1,1.6-1.6C556,99.7,556.2,99.5,556,99.3z M544.7,83.4c0,0.1,0.1-0.1,0.4-0.4
	C545,83,544.8,83.2,544.7,83.4z M545.4,71.6L545.4,71.6c0.1-0.2,0.1-0.3,0.1-0.4C545.5,71.3,545.5,71.4,545.4,71.6z M545.8,71.5
	c0.4-0.4,0.7-0.6,1-1v-0.4C546.5,70.7,545.9,71,545.8,71.5z M556.2,96.2c0.1-0.1,0.1-0.4,0.2-0.7c-0.2,0.1-0.4,0.1-0.4,0.2
	c-0.4,0.4-0.7,0.7-1.1,1.3c-0.6,0.7-1.5,1.3-2,2.1c-0.7,1.2-1.9,1.7-2.9,2.5c-1.4,1.2-2.7,2.4-4,3.5c0.1,0.1,0.2,0.1,0.2,0.1
	l2.8-2.3c0.2,0,0.4,0,0.6,0c0.6-0.5,1.1-0.9,1.7-1.3c0-0.1,0.1-0.3,0.1-0.4c1-0.7,1.7-1.8,2.8-2.4c0.2-0.1,0.3-0.4,0.4-0.6l0.3-0.6
	L556.2,96.2z M547.2,108.5c-0.4,0.2-0.6,0.4-1,0.5C546.4,108.5,546.4,108.5,547.2,108.5z M547.2,81.8l-0.6,1
	C546.7,82.5,547.1,82.1,547.2,81.8z M546.8,100.2c0.3-0.2,0.6-0.4,0.8-0.4h-0.1c0.2-0.2,0.4-0.3,0.6-0.5l0.6-0.3
	c0.2-0.1,0.3-0.3,0.6-0.5c0.2-0.1,0.4-0.3,0.7-0.4c-0.7,1.2-1.3,1.5-2.4,1.8C547.5,100.1,547.3,100.4,546.8,100.2z M547.6,81.2
	c-0.1,0.2-0.2,0.4-0.4,0.6C547.5,81.6,547.5,81.4,547.6,81.2z M547.5,78.3c0.3-0.1,0.8-0.2,0.4-0.6L547.5,78.3z M547.8,81.1
	c0.1-0.2,0.3-0.4,0.4-0.7L547.8,81.1z M549.2,79.1c-0.2,0.4-0.4,0.7-0.6,1l-0.3,0.4L549.2,79.1z M548.5,77.3l0.4-0.7
	C548.5,76.7,548.3,76.8,548.5,77.3z M548.9,64.5c0-0.6,0.2-0.9,0.7-1.2C549.6,63.7,549.4,64.2,548.9,64.5z M549,76.4
	c0.3-0.1,0.4-0.3,0.4-0.7c0.3,0,0.6-0.3,0.4-0.7c-0.3,0.2-0.6,0.4-0.4,0.7C549,75.8,548.9,76.1,549,76.4z M550,74.9
	c0.3-0.1,0.5-0.2,0.4-0.7L550,74.9z M551.4,76.7c0.2-0.3,0.4-0.6,0.5-0.7L551.4,76.7z M551.5,75.8c0.7-0.9,1.4-1.6,2-2.6
	C553.8,72.9,552.8,74,551.5,75.8z M552,75.9l0.3-0.5C552.6,75.1,552.4,75.4,552,75.9z M552.1,72.3c0.2-0.2,0.3-0.4,0.3-0.7
	C552.1,71.7,552,71.9,552.1,72.3z M552.6,71.4c0.3-0.1,0.6-0.2,0.3-0.7C552.8,71,552.6,71.3,552.6,71.4z M554.9,94.3
	c0.1,0.1,0.2,0.2,0.4,0.2v0.1c-0.3,0.4-0.7,0.7-1,1l-0.6-0.3C554.2,94.8,554.6,94.6,554.9,94.3z M555.5,99.3
	c0.2-0.2,0.3-0.4,0.4-0.6C555.6,98.8,555.2,98.9,555.5,99.3z M556.6,98.5c-0.2,0.2-0.3,0.5-0.3,0.7C556.6,99.1,556.8,99,556.6,98.5z
	 M557.3,97.7c-0.1,0.2-0.5,0.3-0.3,0.7C557.2,98.2,557.6,98.1,557.3,97.7z M558.4,96.5c-0.2,0.3-0.6,0.3-0.3,0.7
	C558.3,97,558.7,96.9,558.4,96.5z M572.7,49c-0.1,0.3-0.3,0.4-0.7,0.4h-0.6c-0.3,0.5-0.6,1-0.8,1.3c-0.1,0.1,0,0.2,0,0.4
	c-0.4,0-0.6,0.3-0.5,0.7c-0.7,0.6-1,1.2-1.3,1.9c0.1-0.1,0.2-0.2,0.4-0.3c0.2,0.4-0.2,0.6-0.4,0.7c-0.6,0.1-0.7,0.2-0.8,0.7l0.6-0.3
	c0,0.4-0.1,0.7-0.6,0.7c0.1,0.3-0.1,0.6-0.6,0.7v-0.5c-0.4,0.1-0.5,0.4-0.5,0.7c0.2-0.1,0.4-0.2,0.5-0.3c0.1,0.4-0.3,0.7-0.7,1v-0.4
	c-0.4,0.1-0.6,0.4-0.6,0.7c-0.3,0.1-0.6,0.2-0.4,0.7L566,57c0.2-0.2,0.3-0.2,0.6-0.3c0,0.6-0.4,1-0.8,1.3l0.3,0.4
	c-0.3,0-0.4,0-0.7,0c0-0.1-0.1-0.2-0.1-0.4c-0.1,0.1-0.3,0.1-0.6,0.3c-0.1-0.2-0.3-0.4-0.6-0.6c-0.1,0.1-0.2,0.2-0.3,0.4
	c0,0.2,0.1,0.3,0.2,0.6c-0.8,0-0.7-1-1.5-1.2c-0.1,0.1-0.2,0.3-0.4,0.5c-0.1-0.2-0.2-0.2-0.3-0.4c0.1-0.3,0.3-0.6,0.4-0.9l-1-0.7
	c-0.3,0.2-0.7,0.4-1.1,0.7l-0.8-1.5c-0.1-0.1-0.3-0.2-0.6-0.3c0,0.1-0.2,0.3-0.4,0.6c0-0.2-0.1-0.3-0.1-0.4l0.2-0.7
	c0.2-0.3,0.2-0.7,0.5-0.9c0.6-0.4,1-1.2,1.3-1.8l-0.2-0.3c0.4-0.4,0.7-1,1.1-1.4c-0.2-0.2-0.3-0.2-0.4-0.4c1.3-1.7,2.5-3.5,3.8-5.4
	c1.1-0.5,1.3-0.5,2.5,0c-0.2,0.1-0.4,0.2-0.6,0.2L567,45c0.7-0.1,1.5-0.2,2.3-0.2c0,0,0,0.1,0.1,0.1c-0.4,0.2-0.7,0.3-1,0.4
	c0,0,0,0.1,0.1,0.2c0.2-0.1,0.5-0.1,1-0.2c0,0,0.1,0.1,0.2,0.1c0.1,0.1,0.3,0.1,0.3,0.1c0,0.4-0.1,0.6-0.1,1c0.3-0.1,0.6-0.2,1-0.4
	c-0.2,0.4-0.4,0.7-0.6,1c0.6-0.2,1-0.3,1.6-0.5c-0.2,0.4-0.3,0.6-0.6,1l0.8-0.2c0,0.3,0,0.6,0,0.9L572.7,49z M560.1,93.4
	c-0.1,0.3-0.8,0.3-0.6,1C559.8,94,560.5,94,560.1,93.4z M560.9,87.4c-0.3,0.1-0.6,0.2-0.3,0.7C560.8,87.8,560.9,87.6,560.9,87.4z
	 M560.9,92.6c-0.3,0.1-0.6,0.2-0.3,0.7C560.8,93.1,560.9,92.9,560.9,92.6z M563,84.5c-0.3,0.1-0.4,0.3-0.4,0.7
	c-0.4,0.1-0.6,0.3-0.6,0.7c-0.3,0.1-0.5,0.4-0.4,0.7c-0.4,0-0.6,0.3-0.6,0.7c0.4-0.1,0.6-0.4,0.6-0.7c0.3-0.1,0.5-0.4,0.4-0.7
	c0.4-0.1,0.6-0.3,0.6-0.7C563,85.1,563,85,563,84.5z M561.5,91.7c-0.2,0.2-0.3,0.4-0.3,0.7C561.4,92.3,561.6,92.1,561.5,91.7z
	 M563.5,83.7c-0.2,0.3-0.3,0.4-0.3,0.7C563.5,84.4,563.7,84.2,563.5,83.7z M565.8,84.2c-0.2,0.2-0.3,0.4-0.4,0.6
	c0,0,0.1,0.1,0.2,0.1C565.6,84.7,566.1,84.7,565.8,84.2z M566.5,47.4c0-0.1-0.1-0.1-0.2-0.2c0,0.3-0.5,0.2-0.2,0.7
	C566.4,47.8,566.4,47.7,566.5,47.4z M568.1,52.5c-0.8,0.9-1.5,1.8-1.8,2.9C567.4,54.4,568.2,53.1,568.1,52.5z M567.2,45.9
	C567.2,46,567.3,46,567.2,45.9l0.7-0.5C567.6,45.4,567.4,45.7,567.2,45.9z M568.1,85.3l-0.5,0.7C567.4,85.4,567.7,85.3,568.1,85.3z
	 M568.5,84.5c0,0.4-0.1,0.7-0.6,0.7C567.9,84.8,568.1,84.5,568.5,84.5z M568.5,84.5c0.2-0.7,0.6-1.3,1.3-1.8
	C569.8,83.7,569.1,84.1,568.5,84.5z"/>
<path class="st1" d="M629,80c0,0.1-0.1,0.3-0.2,0.6l-3.2,3.8c0,0.2,0,0.4,0,0.7c-1.5,1.3-2.8,2.7-4.4,3.9l-2.5,2.2
	c-0.2,0.1-0.4,0.1-0.7,0.2l-1.7,1.5c-1.3,1-2.4,2.1-3.6,3.1h-1c0-0.1,0.1-0.3,0.2-0.4c-0.6-0.1-0.6,0.1-0.7,0.4h0.6
	c-0.1,0.1-0.1,0.2-0.1,0.2l-1.5,1.3c-0.1-0.1-0.2-0.2-0.3-0.3c-0.1,0-0.4,0-0.5,0.1c-0.4,0.4-0.7,0.7-1,1c-0.8,0.6-1.4,1.3-2.3,1.8
	c-0.4,0.2-0.7,0.7-1,1c-0.3,0.6-1,0.9-1.6,1.3c-0.3,0.2-0.6,0.4-1,0.7c-0.3,0.2-0.6,0.3-1,0.6c-0.8,0.7-1.9,1.2-2.9,1.8
	c-1.4,0.9-2.8,1.6-4.2,2.6c-0.6,0.3-1.1,0.4-1.6,1c-0.5,0.4-1,0.9-1.5,1.3c-0.5,0.2-0.7,0.7-1,1.3l-1.3,2.4
	c-0.3-0.1-0.4-0.3-0.6-0.4c0.2-0.4,0.4-0.7,0.6-1c-0.1-0.3-0.3-0.5-0.4-0.7c-0.7,0.4-1,1.3-1.4,2c-0.8,1.5-1.6,2.9-2.7,4.2
	c-0.5,0.7-0.8,1.6-1.4,2.4c-0.3,0.6-0.7,1.2-1.1,1.8c0,0.1,0,0.2-0.1,0.4c0.6-0.4,0.8-0.9,1.1-1.3c0.1,0,0.2,0,0.2,0.1
	c-0.2,0.4-0.3,0.7-0.6,1.2c-1.1,1.5-2.1,3.1-3.2,4.6c-1,1.3-2,2.7-3.1,3.9c-0.4,0.6-1,1-1.5,1.6c-0.6,0.6-1,1.3-1.6,1.6
	c-1.5,1-2.6,2.2-3.9,3.4c-0.6,0.4-1.1,0.7-1.8,1.3c0.1,0.1,0.2,0.2,0.2,0.3c-0.6,0.6-1.4,0.9-2.7,0.9c0.1,0.2,0.2,0.3,0.3,0.4
	c-0.8,0-1.6,0.3-2.3,0.3c-0.8,0.1-1.6-0.3-2.4-0.2c-0.7,0-1.5-0.4-2.2-0.6c-0.8-0.2-1.6-0.6-2.4-0.9c-0.4-0.2-0.7-0.5-1-0.7
	s-0.6-0.4-1-0.5c-1.4-0.6-2.4-1.4-3.2-2.6c-0.2-0.4-0.3-0.9-0.3-1.3c-0.1-0.7-0.2-1.6,0.2-2.4c0.1-0.2,0-0.4,0.2-0.6v1
	c0.1,0,0.1,0,0.2,0c0-0.1,0.1-0.3,0.1-0.5c-0.1-0.4,0.6-2.6,0.7-2.9c0-0.1,0.2-0.2,0.2-0.2c0-0.2-0.1-0.4-0.1-0.7
	c0.1-0.2,0.2-0.4,0.4-0.6c0.2-0.1,0.4-0.3,0.7-0.4c0.1,0.4-0.1,0.7-0.5,0.7v0.4c-0.1,0.2-0.2,0.4-0.2,0.6c0.1-0.1,0.2-0.1,0.2-0.1
	c1-1.5,2.3-2.6,3.6-3.8c-0.1-0.1-0.2-0.1-0.2-0.2l0.4-0.6c0.6,0,0.8-0.4,1-0.7h0.7c0-0.3,0.6-0.4,0.5-1c-0.5,0.4-1,0.4-1.3,1
	c-0.6,0-0.8,0.4-1,0.7h-0.4c-0.3,0.4-0.7,0.4-1.4,0.4c0-0.3,0.3-0.4,0.4-0.4c0.2-0.1,0.4-0.2,0.5-0.3c0.2-0.1,0.4-0.3,0.6-0.4
	c0.3-0.3,0.7-0.6,1.1-0.7c0.3-0.3,0.7-0.6,1.1-0.9c1.6-1,3.1-2.2,4.6-3.2c1.6-1,3.2-1.8,4.6-3.1c0.3-0.3,0.7-0.4,1.1-0.6
	c3.6-1.3,6.9-2.9,10.4-4.5c0.8-0.5,1.7-1,2.2-2c0.6-1,1.3-2,1.8-3.1c0-0.2,0.3-0.2,0.4-0.4c0,0.3,0,0.6-0.1,0.7l-1.5,2.3
	c0,0.1,0.1,0.2,0.2,0.4c0.2-0.4,0.6-0.9,0.7-1.3c0.1,0,0.2,0.1,0.2,0.2c1-1.7,2.1-3.5,2.9-5.3c0.7-1.8,1.9-3.5,2.7-5.4
	c-1,0.4-1,1.5-1.9,1.5c0.3,0.3,0.3,0.6,0.1,1c-0.7,1.3-1.5,2.6-2.2,3.9c-0.1,0.2-0.3,0.3-0.5,0.5c0.2-0.7,0.7-1.5,1.1-2.2
	c-0.1,0-0.2-0.2-0.3-0.3c0.6-1.3,1.1-2.5,1.8-3.8c0.1-0.2,0-0.4,0-0.7l-1.7,1.7c-0.6,0.7-1.4,1.2-2.2,1.7c-1,0.7-2.2,1.5-3.2,2.2
	s-2.1,1-3.4,1.3c-0.7,0.2-1.4,0.2-2.2,0c-0.7-0.1-1.6-0.2-2.2-0.6c-0.4-0.3-1,0.1-1.3-0.4c-1.5-0.3-2.7-1-4.1-1.7
	c-0.6-0.3-1-0.9-1.7-1.3c-1.5-1-2.6-2.1-3.4-3.5c-0.1-0.2-0.2-0.4-0.2-0.4c0.5-0.9,0.3-1.8,0.2-2.7c0-1,0.3-1.8,0.4-2.8
	c0.2,1.2,0.1,2.4,0.3,3.5c0.1-0.2,0.1-0.3,0.1-0.4c-0.2-1.5,0.4-2.8,0.5-4.2c0-0.2,0.2-0.4,0.2-0.6c0.1-0.2,0.3-0.4,0.3-0.6
	c-0.1-1.3,0.6-2.3,0.8-3.5c0.1-0.4,0.2-0.9,0.4-1.2c0.4-0.7,0.3-1.3-0.1-1.9c1-1.3,1.4-2.7,2.4-3.8c1.4-2.7,3.4-4.9,4.9-7.4
	c0.4-0.7,1-1.3,1.7-2c0.3-0.3,0.7-0.4,1-0.7c-0.2-0.6,0.1-0.9,1.4-1.5v-0.9c1-0.9,2.1-1.7,3.1-2.6c0.1-0.1,0.3-0.1,0.4-0.1l-1.3,1.5
	c0.2,0,0.3,0,0.6,0l-1.8,1.6c-1.3,1.3-2.5,2.5-3.6,3.8c-1,1.2-1.9,2.2-2.5,3.5c-0.2,0.4-0.7,0.7-0.7,1.3c-0.3,0.1-0.6,0.2-0.4,0.7
	c0.2-0.3,0.4-0.4,0.4-0.7c0.7-0.4,1-1.3,1.6-1.9l2.3-2.9c0.4-0.7,1.3-1.3,1.8-1.9c0.6-0.9,1.4-1.5,2.1-2.1c0.6-0.7,1.5-1.3,2.2-1.8
	h0.3c-0.1,0.2-0.1,0.3-0.2,0.4c-1.1,1-2.3,2-3.4,3.1c-0.7,0.7-1.4,1.5-2,2.2c-0.8,1-1.5,2.3-2.5,3.3c-0.2,0.2-0.6,0.5-0.4,0.9
	c-0.4,0.1-0.5,0.4-0.5,0.7c-0.4,0.1-0.6,0.3-0.4,0.7c-0.5,0.3-0.7,0.7-0.7,1.2c0.4-0.3,0.6-0.7,0.7-1.2c0.3-0.1,0.6-0.3,0.4-0.7
	c0.4-0.1,0.6-0.4,0.5-0.7c0.1,0,0.2-0.1,0.3-0.1c0.5-0.1,0.8-0.3,1.1-0.7c0.8-1.3,1.8-2.5,2.8-3.6c0.5-0.6,1-1.3,1.5-1.9l-0.2-0.3
	c1-0.7,1.7-1.6,2.7-2.3c0.7-0.6,1.4-1.2,1.9-1.7h-0.6c0.1-0.4,0.4-0.6,0.8-0.4c0.6-0.7,1.5-1.2,2.3-1.6c1-0.7,2-1,2.9-1.6
	c0.7-0.4,1.6-0.6,2.4-0.9v-0.7c-1,0.4-2,0.7-3.1,1c0.6-0.7,1.1-0.9,1.7-1c1-0.3,1.8-0.6,2.8-0.6c0.5,0.1,1-0.1,1.4-0.2
	c0.6-0.3,1-0.3,1.5-0.1c0.1,0.1,0.3,0.1,0.4,0.1c1.4,0,2.4,0.4,3.4,1.2c1.1,0.7,2.3,1.3,3.2,2.2c0.7,0.4,1.4,1,1.9,1.5
	c0.5,0.4,1.1,1,1.4,1.6c0.1,0.3,0.4,0.4,0.6,0.7c0.4-0.2,0.7-0.4,1.1-0.7v-0.4c0.3-0.3,0.5-0.6,1-1c0.1-0.1,0.5,0,0.7-0.4l2.3-2.9
	c0.2-0.3,0.6-0.5,0.8-0.7h1.6c-0.2,0.3-0.2,0.6-0.3,0.7c0.4,0.2,0.8,0.4,1.4,0.7l0.2-0.2c0.3,0.3,0.5,0.6,1,0.9V60
	c-1.7,1.5-3.1,3.4-4.4,5.2c-0.2,0.4-0.8,0.4-0.6,1c-0.4,0.1-0.7,0.2-0.6,0.7c0.2-0.3,0.4-0.4,0.6-0.7c0.5-0.3,0.8-0.9,1.3-1.3l0.7-1
	c0.3-0.3,0.6-0.6,0.8-0.9c0.6-0.9,1.3-1.6,2-2.5h1.8c0,0.6,0,1.3,0,2c0.2-0.4,0.4-0.6,0.6-1c0.1,0.3,0.2,0.6,0.1,0.7
	c-1,1.3-1.8,2.9-3.1,4.1c-0.6,0.7-1,1.5-1.6,2.1c-0.3,0.4-0.6,0.9-0.8,1.3c0,0.1-0.1,0.2-0.2,0.3c-0.3,1-1,1.7-1.5,2.6
	c-1,1.6-2,3.2-3.1,5c-0.6,1.2-1.4,2.3-1.9,3.5c-0.8,1.8-1.8,3.6-2.7,5.5c-0.4,1-1,2-1.6,3.1c-1.3,2.5-2.4,5.1-3.8,7.6
	c-0.3,0.6-0.7,1.3-1,1.8c-0.2,0.7-0.6,1.3-0.7,1.8c-0.1,0.2-0.2,0.3-0.2,0.4l0.4,0.4c0.7-0.4,1.5-1,2.2-1.5c1-0.7,1.9-1.3,2.8-1.9
	c1-0.6,1.7-1.3,2.5-2c0.2-0.2,0.3-0.4,0.7-0.3c-0.1,0.1-0.2,0.3-0.2,0.4c0.1,0,0.2,0.1,0.3,0.1c0.2-0.2,0.4-0.4,0.6-0.7h-0.6
	c0.2-0.2,0.4-0.4,0.7-0.7c0.2,0.1,0.2,0.2,0.3,0.3c0.6,0.1,0.8-0.3,1-0.7c-0.3,0-0.3-0.2-0.2-0.4c0-0.1,0.2-0.2,0.4-0.4v0.6
	c0.3-0.2,0.6-0.3,0.8-0.4c5.3-4.1,13.6-12.2,17-16.4c0.1,0.3,0.2,0.4,0.3,0.6c0.1,0,0.2-0.1,0.3-0.2c0.1,0.3,0.2,0.6,0.4,1
	c-0.7,0.7-1.5,1.6-2.2,2.5c-0.3,0.4-0.6,0.7-0.8,1c-0.1,0.2-0.1,0.4-0.1,0.7c-0.3,0.1-0.6,0.2-0.4,0.7c0.2-0.3,0.3-0.5,0.4-0.7
	c0.2-0.2,0.6-0.3,0.6-0.5c0.4-0.9,1.1-1.5,1.9-2.2c0.1-0.1,0.1-0.2,0.2-0.6c0,0.4,0.1,0.4,0.1,0.7c-1.8,1.9-3.1,4.1-5.2,5.8v0.1
	c0,0,0,0.1,0.1,0.2c1.5-1.3,2.8-2.7,4-4.2v-0.2c0.7-0.7,1.5-1.5,2.3-2.3c0.1-0.1,0.3-0.1,0.6-0.3c-0.3,0.4-0.5,0.7-0.6,1
	c0,0,0,0.1,0.1,0.1c0.4-0.3,0.8-0.6,1.4-0.9C628.9,79.7,628.9,79.9,629,80z M552.1,127.6l-0.4-0.4c0.7-0.7,1.4-1.4,2.2-2.3
	c0.1,0.3,0.1,0.4,0.1,0.6C553.4,126.2,552.7,126.9,552.1,127.6z M552.1,132.7c-0.2,0.6-0.3,1,0,1.6V132.7z M554.5,129.2
	c-0.1-0.2-0.2-0.4-0.3-0.4l-0.4,0.4c0,0.4,0,0.7,0.1,1c-0.8,0.7-0.6,1.5-0.8,2.3c-0.2,0.7,0,1.4,0,2.2c0.1,0.1,0.2,0.2,0.6,0.4
	c-0.2-0.7-0.3-1.2-0.3-1.6c0-0.6,0.1-1,0.2-1.6c0.1-0.4,0.2-1,0.3-1.3c0.2-0.4,0.2-0.5,0.4-0.7C554.2,129.5,554.4,129.3,554.5,129.2
	z M553.6,127l0.4-0.7C554.5,126.7,553.9,126.9,553.6,127z M576.4,117.6c-0.1,0-0.1-0.1-0.1-0.2c-0.3,0.1-0.6,0.1-0.7,0.2
	c-1.7,0.7-3.2,1.5-4.6,2.4c-1,0.7-2,1.3-3.1,1.9c-1,0.4-2,1.3-3.1,1.8c-1.4,0.7-2.5,1.8-3.8,2.7c-0.4,0.4-1,0.7-1.4,1
	c-0.6,0.4-0.8,0.9-1.3,1.3c-0.4,0.7-1,1.3-1,2.1c0,0.7-0.1,1.3-0.2,2c-0.1,0.2-0.3,0.5-0.3,0.7v2.6c0.4,0.2,0.7,0.4,1,0.6
	c1.3-0.2,2.1-0.9,3.1-1.3c0.7-0.3,1.5-0.7,2.1-1.3c2-1.9,4.2-3.8,5.9-5.8c0.7-0.9,1.6-1.6,2.3-2.6s1.7-2.1,2.3-3.2
	c0.6-1,1.4-1.7,2-2.7v-0.7L576.4,117.6z M567.9,130.8L567.9,130.8c-0.8,0.5-1.5,1.2-2.3,1.9C566.2,132.4,567.2,131.6,567.9,130.8z
	 M568.2,80.2c-0.6,1-1,2-1.5,3.1c-0.1,0.2-0.1,0.4-0.1,0.6C567.2,82.5,568.3,81.6,568.2,80.2z M567.6,95.3c-0.1,0.4-0.5,0.7,0,1.2
	V95.3z M568.8,77c0.5-0.2,0.5-0.2,0.6-0.7L568.8,77z M569.7,83.3c-0.4,0.4-1,0.9-0.6,1.6C569.3,84.2,569.6,83.8,569.7,83.3z
	 M570.3,132.7c-0.2,0.1-0.3,0.3-0.4,0.4h-0.6c-0.3,0.3-0.3,0.3-0.2,0.7l0.6-0.3C570.4,133.5,570.4,133.5,570.3,132.7z M569.8,75.8
	c0.2-0.2,0.6-0.3,0.3-0.7C569.9,75.4,569.5,75.4,569.8,75.8z M569.8,83.2c0.4-0.4,0.8-0.9,0.6-1.5C569.9,82.1,569.6,82.5,569.8,83.2
	z M594.8,78.6c0.5-0.6,1-1.3,1.5-1.8c0.8-0.9,1.4-1.8,1.9-2.8c0.3-0.4,0.6-0.7,0.8-1.2c0.5-1,1.3-1.8,1.5-2.9
	c0.2-1.3,0.5-2.6,0.7-3.8c0.1-0.3,0.3-0.7,0.3-1v-3.2c-0.6-0.3-1-0.4-1.6-0.7h-1c0.1-0.2,0.2-0.4,0.4-0.7c-1.5,0-2.7,0-4,0.6
	c-0.7,0.3-1.4,0.7-2.2,0.6c-0.2,0.2-0.3,0.4-0.4,0.4c-1.8,0.7-3.2,1.9-4.7,2.9c-0.6,0.4-1,0.9-1.6,1.2c-1.8,1-3.2,2.2-4.6,3.5
	c-0.4,0.4-1,0.7-0.8,1.5c-0.3,0.2-0.5,0.4-0.8,0.7c0,0.3,0,0.6,0.1,0.9c0.8-0.7,2.1-1,2.4-2.2c0-0.1,0.2-0.2,0.3-0.3
	c0.3-0.3,0.6-0.7,1-1c0.1-0.7,0.1-0.7,0.8-0.9c1-0.7,1.9-1.5,2.9-2.3c0.1,0.4,0.1,0.7,0.1,0.9c-0.2,0-0.3,0-0.4,0.1
	c-1.6,1.4-3.4,2.9-4.8,4.5c-0.5,0.5-1,0.9-1.5,1.5l-3.4,4.5c-1,1.5-2.1,2.9-3.1,4.4c-1.3,2.1-2.5,4.1-3.2,6.4c-0.3,1.2-1,2.2-1,3.5
	c0,0.1-0.1,0.3-0.2,0.4c0.4,0.4,0.3,0.7,0.2,1.2c-0.2,0-0.3,0.1-0.4,0.1c0.1,0.4,0.2,1,0.2,1.3v4.6c0.1,0.1,0.3,0.2,0.3,0.3
	c1.6,0.2,2.9-0.1,4.1-0.7c0.4,0.1,0.7,0.1,1,0.1c0.7-0.7,2-0.4,2.7-1.3c0-0.2,0.1-0.4,0.1-0.7c0.1-0.2,0.3-0.4,0.5-0.4
	c1.5-0.7,2.4-1.8,3.6-2.7c0.7-0.6,1.3-1.3,2-1.9c1.1-1.3,2.3-2.4,3.4-3.6c1.3-1.3,2.2-2.8,3.2-4.2c0.7-1,1.4-1.9,1.9-2.9
	c0.3-0.6,0.8-1,0.7-1.7L594.8,78.6z M572.7,130.7c0-0.1,0-0.3-0.1-0.6c-1,0.4-1.1,1.4-2,1.8c0.1,0.2,0.1,0.4,0.2,0.7
	C571.6,132,572.1,131.3,572.7,130.7z M571.2,80.2c0.6-0.1,0.8-0.4,0.7-1.3C571.6,79.4,571.4,79.9,571.2,80.2z M571.6,118.8
	c0.3-0.2,0.4-0.4,0.7-0.6C571.8,118.3,571.8,118.3,571.6,118.8z M572.3,78.8l0.5-0.7C572.3,78.2,572.3,78.2,572.3,78.8z
	 M576.6,132.9c-0.1,0.5-0.1,0.5-0.7,0.9C576,133.4,576,133.4,576.6,132.9z M576.6,132.7c1.4-1.8,2.8-3.6,4.3-5.4
	c0,0.4-0.3,1-0.6,1.5c-1,1-1.5,2.2-2.6,3.1c-0.1,0.6-0.7,0.7-1,1.3v-0.3v-0.2H576.6z M577,129.8c-0.3,0.1-0.6,0.2-0.3,0.7
	C576.9,130.3,577,130.1,577,129.8z M577.6,128.9c-0.2,0.2-0.3,0.4-0.3,0.7C577.6,129.5,577.7,129.3,577.6,128.9z M578.4,128.2
	c-0.3,0.1-0.6,0.2-0.4,0.7L578.4,128.2z M578.1,72.5c0.4,0,0.6,0,0.7-0.2c0.2-0.2,0.4-0.4,0.5-0.7c0.6-0.6,1-1,1.4-1.5
	c0.5-0.7,1-1.5,1.8-2l1.9-1.7c-1.1,0.3-4,3.1-5.9,5.3C578.3,71.9,578.3,72.2,578.1,72.5z M581.1,124.1c-0.4,0.2-0.5,0.7-0.6,1
	c-0.4,0.1-0.6,0.4-0.6,0.7c-0.4,0.1-0.6,0.3-0.6,0.7c-0.4,0.1-0.5,0.4-0.5,0.7c-0.3,0.1-0.6,0.4-0.4,0.7c0.3-0.1,0.4-0.3,0.4-0.7
	c0.4-0.1,0.5-0.3,0.5-0.7c0.4-0.1,0.6-0.4,0.6-0.7c0.4-0.1,0.6-0.4,0.6-0.7C581,125,581.1,124.6,581.1,124.1z M578.8,117.2
	c0.2-0.2,0.3-0.4,0.4-0.6C578.9,116.7,578.4,116.9,578.8,117.2z M580.7,96.6c-0.4-0.2-0.6,0.1-0.7,0.3
	C580.4,97.2,580.5,96.8,580.7,96.6z M580.2,62.2c0.3-0.4,0.6-0.7,1.1-0.9c0.4-0.5,0.7-0.7,1-1c0.1,0.4-0.1,0.7-1,0.9h0.1
	C581.1,61.7,580.9,62.2,580.2,62.2z M582.3,95.3h-0.7c-0.2,0.3-0.3,0.6-0.6,0.9C581.5,96.2,581.5,96.2,582.3,95.3z M586.4,92.8
	c0,0,0-0.1-0.1-0.3c-0.8,0.9-1.7,1.6-2.5,2.4c-1,0.7-1.9,1.5-2.7,2.2c1.5-0.2,2.1-1.3,3.1-2C585,94.5,585.6,93.6,586.4,92.8z
	 M581.2,63.3c0.2-0.4,0.6-0.7,1-0.7C582.1,63.1,581.8,63.4,581.2,63.3z M581.7,123.3l-0.4,0.7C581.7,123.8,581.9,123.7,581.7,123.3z
	 M583.3,123.7c-0.1,0.3-0.2,0.4-0.4,0.7C582.6,124,583,123.7,583.3,123.7z M585.6,119.9c-0.6,1.3-1.3,2.3-1.9,3.5
	c-0.1,0-0.2-0.1-0.3-0.1C583.6,122.3,584.8,120.5,585.6,119.9z M584.4,93.7c-0.3,0.2-0.6,0.4-1,0.7C584,94.3,584.3,94,584.4,93.7z
	 M584.4,66c0.7-0.1,1-0.5,1.3-0.7c-0.1,0-0.2-0.1-0.2-0.2C585.1,65.3,584.9,65.6,584.4,66z M587.3,57.9c-1,0.5-1.8,0.9-2.6,1.3
	C585.3,58.3,586.5,57.8,587.3,57.9z M586.8,93.3c-0.3,0.3-0.6,0.6-1,0.7c-0.4,0.4-0.4,0.4-0.6,1C586,94.5,586.6,94,586.8,93.3z
	 M585.2,120l1.4-2.3C586.5,118.6,586,119.5,585.2,120z M585.7,65c0.7,0,0.8-0.4,1.1-0.6l-0.2-0.3L585.7,65z M586.9,91
	c-0.5,0.4-1.1,0.6-1.1,1.3c0.3-0.3,0.6-0.6,1-1C586.8,91.2,586.9,91.1,586.9,91z M588.4,91.7c-0.4,0.3-0.7,0.6-1,0.9
	c-0.1,0.2-0.1,0.4-0.2,0.7C587.7,92.6,588.2,92.3,588.4,91.7z M588.4,89.2c-0.2,0.3-0.8,0.4-0.6,1C588.2,89.7,588.2,89.7,588.4,89.2
	z M593,83.2c-1,1.3-2,2.8-2.9,4.2c-0.1,0-0.1,0.1-0.1,0.1l-1,1c-0.1,0.2-0.1,0.4-0.2,0.5c0.6-0.5,1.3-0.6,1.3-1.3
	C591.5,86.4,592.4,85,593,83.2z M589.8,90.3c-0.4,0.3-1,0.4-1,1.3c0.4-0.4,0.6-0.6,0.8-0.9C589.6,90.6,589.8,90.4,589.8,90.3z
	 M592.6,86.7c-0.3,0.4-0.8,0.6-0.7,1c-0.4,0.3-0.8,0.5-0.8,0.9c-0.3,0.4-1,0.7-1,1.3c0.4-0.4,1-0.4,1-1.2c0.4-0.2,0.8-0.4,0.8-0.7
	C592,87.6,592.6,87.5,592.6,86.7z M592.9,63.3c-0.2,0.2-0.4,0.3-0.7,0.5C592.3,63.3,592.3,63.3,592.9,63.3z M592.3,57.4
	c0.4,0.2,0.8,0.3,1.3,0.4c0,0,0-0.1,0.1-0.2c-0.1-0.1-0.2-0.2-0.4-0.3h-0.8C592.3,57.3,592.3,57.4,592.3,57.4z M595.9,61.9
	c-0.8,0.3-1.7,0.7-2.5,1C594,62.2,594.8,61.8,595.9,61.9z M594,81.5c-0.1,0.2-0.2,0.4-0.4,0.6C594,81.9,594.4,81.9,594,81.5z
	 M595.9,61.7c0.2-0.7,0.8-0.4,1.3-0.4C596.9,61.7,596.5,61.7,595.9,61.7z M597.9,61.2c-0.2,0-0.5,0-0.7,0V61c0.5,0,1,0,1.5,0v0.2
	H597.9z M598.3,74.9c-0.2,0.4-0.4,0.7-0.6,1.2v0.6C598.2,76.1,598.6,75.7,598.3,74.9z M600.4,71.3l-0.5,1
	C600.6,72,600.7,71.8,600.4,71.3z M605.2,78.9h0.2c0.2-0.3,0.4-0.7,0.6-1c-0.4-0.2-0.4,0.2-0.6,0.3
	C605.3,78.3,605.3,78.6,605.2,78.9z M606.1,93.7c0.3-0.6,0.3-0.6,0.8-0.7C606.6,93.3,606.6,93.7,606.1,93.7z M606.9,67.5
	c0.2-0.3,0.3-0.5,0.3-0.7C606.9,66.8,606.6,67,606.9,67.5z M607.4,66.6c0.3-0.1,0.4-0.3,0.4-0.7c0.4-0.1,0.6-0.3,0.6-0.7
	c0.4-0.1,0.5-0.4,0.5-0.7c0.3-0.2,0.7-0.4,0.6-1c-0.4,0.2-0.7,0.4-0.6,1c-0.4,0.1-0.6,0.3-0.5,0.7c-0.4,0.1-0.6,0.4-0.6,0.7
	C607.4,66,607.3,66.3,607.4,66.6z M608.1,68.5c0.3-0.2,0.7-0.4,0.8-0.7c0.6-1,1.5-2,2.2-2.9c0.2-0.4,0.7-0.9,1-1.3
	c0.8-1.3,1.9-2.3,2.8-3.4c0.3-0.4-0.1-0.4-0.2-0.7C612.5,62.5,610,65.3,608.1,68.5z M609.5,63.6c0.3-0.1,0.6-0.2,0.4-0.7
	C609.8,63.1,609.7,63.3,609.5,63.6z M610.4,62.7c0.2-0.2,0.6-0.3,0.3-0.7C610.5,62.2,610.2,62.3,610.4,62.7z M624.1,80.8
	c0.2-0.3,0.3-0.6,0.4-0.9c0,0,0-0.1-0.1-0.1l-0.6,0.4c0,0.4-0.1,0.6-0.6,0.7c0-0.1-0.8,0-0.8,0.4c0,0-0.1,0.1-0.2,0.1
	c-1.1,1.3-2.3,2.7-3.6,3.8c-0.6,0.6-1,1-1.7,1.5c-0.4,0.4-0.7,0.7-1.3,1c-0.3,0.2-0.6,0.4-0.7,0.7c-0.2,0.6-0.7,0.9-1.1,1.3
	l-1.6,1.5c0.1,0.1,0.2,0.1,0.2,0.1c1.3-0.7,2-1.7,3.1-2.6h0.3c1-0.7,1.9-1.5,2.8-2.2C620.7,84.8,622.4,82.8,624.1,80.8z M622.4,82.1
	v-0.6c0.2-0.1,0.4-0.1,0.5-0.2C623,81.6,622.8,81.8,622.4,82.1z M627,80.8c-0.3,0.4-1,0.5-1,1.2C626.5,81.6,627.1,81.5,627,80.8z"/>
<path class="st1" d="M675.5,80.3l-1,1.3c-0.4,0.5-0.8,1-1.1,1.5c-0.3,0.4-0.8,0.9-1.1,1.3c-0.4,0.7-1.3,1.2-1.7,1.8
	c-0.1,0.1-0.4,0.1-0.5,0.1c-1,1.2-2.1,1.9-2.8,2.8c-0.5,1.2-1.3,1.7-2,2.5c-0.6,0.7-1.3,1.5-1.9,2.2v0.4c-1.6,1-2.7,2.4-4,3.5
	c-1.3,1-2.6,1.9-4,2.7c-0.4,0.3-1,0.4-1.7,0.7c-0.1,0.1-0.2,0.4-0.3,0.7h-2.7c-0.2-0.2-0.3-0.3-0.5-0.4c-0.6,0.1-1.4,0-1.9-0.6
	c-0.1-0.1-0.3-0.1-0.4-0.1c-0.7-0.3-1.3-0.6-1.9-1c-1-0.7-1.9-1.5-3.1-1.8c-0.1,0-0.2,0-0.2-0.1c-0.6-0.9-1.7-1.3-2-2.4
	c0-0.4-0.1-0.9-0.1-1.3c0-0.7-0.1-1.4,0.4-2.1c0.3-0.4,0.2-0.9,0.3-1.3c0.6-1.8,0.8-2.5,1.7-3.8c0.3-0.4,0.6-0.9,1-1.3
	c0.3-0.6,0.7-0.7,1.3-0.7c0.4-0.1,0.5-0.4,0.5-0.7c-0.1-0.7,0.4-0.9,0.7-1.3c1-1,1.4-2.3,2.1-3.5c0.3-0.4,0.6-1,1-1.5v-1
	c1-1.6,2.2-3.2,3.4-4.8c0-0.1,0.1-0.3,0.2-0.3c0.4,0,0.6-0.4,0.8-0.7c0.2-0.1,0.3-0.4,0.4-0.7c0.2-0.4,0.3-0.7,0.4-1
	c0.1,0,0.2,0,0.4-0.1c-0.1-0.6,0.2-1,0.5-1.5c0.4-0.5,0.6-1,0.8-1.6l1.4-2.4c-0.6,0.2-0.8,0.4-1.1,0.6l-1,0.3
	c-0.7,0.1-1.3,0.4-1.8,0.9c-0.1,0.1-0.4,0.1-0.5,0.2l0.2-0.7c0.4,0.1,0.7-0.1,0.8-0.4c0.2-0.1,0.6-0.2,0.8-0.4
	c-0.6-0.2-0.7,0.1-0.8,0.4c-0.4-0.1-0.7,0.1-0.8,0.4c-0.6,0-0.8,0.4-1,0.7c-0.1,0-0.3,0-0.4,0.1c-0.5,0.3-1,0.7-1.5,1
	c-2,1.5-3.8,3.2-5.6,4.9c-1.3,1.3-2.5,2.5-3.6,3.8l-2.2,2.4c-0.3,0.4-0.6,0.7-1,1.2c-0.2,0.1-0.4,0.2-0.6,0.3
	c-0.4,1.2-1.4,1.9-2,2.9s-1.5,1.8-2.3,3.2l-3.1,3.9c-1,1.5-2.3,2.9-3.6,4.4c-0.1,0-0.1-0.1-0.2-0.2l-0.6,0.4c0-0.1-0.1-0.3-0.2-0.4
	c-0.2,0.1-0.4,0.2-0.6,0.3c-0.8,1.3-1.8,2.7-2.7,4.1l-1.6,2.3c0.1,0.2,0.2,0.3,0.3,0.4l-0.7,0.4c-0.1-0.4-0.3-0.7-0.4-1
	c0.7-1.2,1.6-2.3,2.4-3.5c0.3-0.4,0.8-0.7,0.8-1.3c0.4-0.1,0.5-0.3,0.4-0.7c0.3-0.1,0.7-0.2,0.6-0.7c-0.2,0.3-0.4,0.4-0.6,0.7
	c-0.3,0.1-0.5,0.4-0.4,0.7c-0.7,0.3-0.8,1-1.3,1.3c-0.4,0.4-0.7,0.9-1.1,1.3c-0.6,0.6-1.1,1.5-1.5,2.2c0,0.1-0.1,0.1-0.2,0.2
	c-0.6,0-0.6-0.5-0.6-0.7c-0.3,0.1-0.5,0.2-0.7,0.2c-0.2-0.2-0.4-0.4-0.7-0.7v-0.4c-0.4,0.2-0.7,0.4-1.1,0.6c-0.3-0.4-0.6-1-0.7-1.3
	c0,0,0.1,0,0.1-0.1c-0.3-0.2-0.6-0.4-1-0.7c0.2-0.2,0.3-0.4,0.4-0.4l-0.3-0.3c0.2-0.4,0.4-0.9,0.6-1.2c0.7-1,1.5-2,2.2-2.9
	c0.7-1,1.5-2.2,2.1-3.3c0.7-1.3,1.6-2.4,2.4-3.6c0.8-1.3,1.8-2.7,2.7-3.9c0.4-0.6,1-1,1.3-1.7l1.3-1.7c1-1.2,2.1-3.5,2.9-5.2
	c0.5-1.2,1.1-2.3,1.9-3.4c0.3-0.7,0.7-1.5,1-2.1c0-0.2,0.1-0.3,0.2-0.4c0.1-0.3,0.4-0.6,0.5-0.9c0.1-0.7,0.3-1.3,0.6-1.9
	c0.1-0.4,0-1,0-1.5l-0.7-0.3c-0.6-2.9,1.7-3.8,2.8-2.5c1.5,0.3,1.8,1.7,3.1,2.5c0.2,1.2,0.6,2.4,0.7,3.6c0.1,1.3,0,2.6,0.2,3.8
	c0-0.2,0.1-0.4,0.1-0.7h0.6c-0.1,0.4-0.2,0.7-0.3,1c0.1,0.2,0.2,0.3,0.4,0.5c1.1-1,2.4-2,3.6-3.2c0,0.2,0,0.4-0.1,0.4
	c-0.3,0.4-0.6,0.7-1,1c-0.1,0.1-0.2,0.3-0.2,0.4c0.3,0.1,0.3-0.1,0.5-0.2c1.3-1.2,2.5-2.2,3.9-3.4l-0.8-0.2c1.5-1.4,3.1-2.8,4.8-3.8
	c1.6-1,3.5-1.7,5.2-2.2c-0.1-0.7-0.6-0.6-1-0.7c2.5-0.9,3.6-0.3,5.8,1.4c0.2,0,0.4,0.1,0.6,0.1c0.3,0.4,0.6,1,1,1.3
	c0.4,0.4,0.8,0.7,1.4,1c0,0.1-0.1,0.1-0.2,0.3c0.2,0.7,0.7,1.3,0.6,2c0.4,0.4,0.2,1,0.2,1.5c0.2,1,0,1.7-0.3,2.5
	c-0.5,1.3-1.4,2.2-1.9,3.5l0.2,0.2c-0.7,0.7-1.5,1.3-1.5,2.4c-0.8,0.2-1.3,1-1.7,1.5c-0.7,1.3-1.8,2.3-2.5,3.5c-0.3,0.4-0.6,1-1,1.3
	l-0.6,0.7c-0.2-0.2-0.3-0.3-0.6-0.6c-0.6,1-1,1.8-1.6,2.7c-1.4,2-2.5,4.2-3.9,6.3c-0.7,1-1.6,2.2-2,3.5c-0.1,0.7-0.6,1.4-0.3,2.4
	l0.3-1.2c0.3,1.3-0.6,2.1,0.2,3.5c0.3,0.4,1.4-0.2,2.1,0.4c1-0.6,2.1-1,3.1-1.7c1.5-1,2.8-2,4-3.2c0.6-0.4,1.1-0.9,1.9-1.3
	c-0.1,0.3-0.1,0.4-0.3,0.6c-0.8,0.7-1.6,1.6-2.6,2.2c-0.6,0.4-1,0.9-1.6,1.5c0.2,0,0.4,0.1,0.6,0c1.3-1.3,3.1-2.1,4.4-3.5
	c1-1,2-2,2.6-3.4c0.1-0.2,0.3-0.3,0.6-0.4l-0.2-0.2c1.6-1.9,3.5-3.5,5.3-5.2c1.3-1,2.2-2.2,3.1-3.4l1-0.7c0.2,0.4-0.6,0.6-0.6,1
	c-1,1-1.6,2.1-2.5,3.1c-0.5,0.4-1,1.2-1.6,1.7h0.6c1.6-1.7,3.2-3.5,4.8-5.3c-0.1-0.1-0.2-0.1-0.2-0.1c0.2-0.3,0.4-0.4,0.6-0.7h0.4
	c0.2,0.2,0.3,0.4,0.3,0.6c0,0.1-0.1,0.3-0.3,0.6c0.5-0.2,0.7-0.4,1.1-0.6l-0.2,0.7c-0.3,0.4-0.8,0.4-0.7,1.3
	c0.3-0.4,0.8-0.6,0.7-1.3C674.8,80.7,674.8,79.9,675.5,80.3z M624.9,81.3c-0.2,0.3-0.6,0.4-0.3,0.7
	C624.8,81.9,625.2,81.8,624.9,81.3z M634.2,66.8c-0.1,1-1,1.7-0.7,2.8C633.7,68.7,634.3,67.8,634.2,66.8z M634.6,66.5
	c0-0.3-0.1-0.6-0.1-0.9h-0.1c0,0.3,0,0.6,0,0.9H634.6z M636,71.6c-0.4,0.7-0.7,1.3-1,1.9c0.1,0,0.2,0,0.2,0.1
	C635.4,72.9,636.3,72.6,636,71.6z M639.4,67.8c-0.2,0.4-0.3,0.7,0,1.3V67.8z M639.6,65.6c0,0-0.1,0-0.2,0v1.3c0,0,0.1,0,0.2,0.1
	V65.6z M657.7,61c-0.2,0-0.2-0.1-0.2-0.1c-0.1,0.1-0.2,0.1-0.3,0.1c-1,0.4-1.9,0.9-2.8,1.3c-1,0.4-1.9,1-2.7,1.6
	c-0.8,0.6-1.8,1.2-2.6,1.8c-0.8,0.7-1.7,1.3-2.4,1.9c-1.4,1.2-2.8,2.3-4,3.8c-0.6,0.9-1.5,1.5-2.2,2.3c0.2,0.1,0.3,0.2,0.4,0.4
	c1-1,1.7-1.8,2.6-2.7c1.6-1.5,3.1-2.9,4.8-4.4c1.1-0.7,2.2-1.6,3.2-2.4c1.8-1.3,3.6-2.3,5.6-3.3C657.3,61.2,657.5,61.1,657.7,61z
	 M641.2,70.9c0.6-0.3,0.8-0.6,1.1-0.9c-0.1-0.2-0.1-0.3-0.2-0.6C641.7,70,641.3,70.1,641.2,70.9z M643,88.6c0.1-0.2,0.1-0.4-0.1-0.7
	c-0.8,1.6-1.5,3.4-1.3,5.2c0.1-0.6,0.3-1,0.4-1.5C642.1,90.5,642.4,89.5,643,88.6z M643,93.4L643,93.4l-0.1,1.2h0.1V93.4z M644,88.9
	l-0.6-0.3c-0.1,0.2-0.2,0.4-0.4,0.7h0.8C643.8,89.3,643.8,89.2,644,88.9z M645.9,84.4c-0.2,0.2-0.3,0.4-0.6,0.7
	C645.9,84.8,645.9,84.8,645.9,84.4z M647,82.5l-0.7,1.3C646.8,83.6,647.1,83.3,647,82.5z M647.1,95.8v1
	C647.3,96.5,647.5,96,647.1,95.8z M647.6,81.6c0,0,0,0.1,0.1,0.2c0,0,0.2-0.1,0.2-0.2c1.6-2.8,3.4-5.5,5.3-8.2c0,0,0-0.2-0.1-0.4
	l-0.6,0.6C650.8,76.1,648.9,78.7,647.6,81.6z M648.3,91.4c-0.6,0.4-0.6,0.4-0.6,1C648,92.1,648,91.8,648.3,91.4z M648,64.7
	c0.6-0.2,1-0.7,1.4-1.2C648.7,63.6,648.6,63.9,648,64.7z M649.4,89.4c-0.3,0.1-0.7,0.2-0.3,0.7L649.4,89.4z M649.4,63.4
	c0.6,0,0.8-0.3,1-0.6c0.4-0.3,0.8-0.5,1.3-0.7c0.5-0.3,0.5-0.3,1-0.9c-0.8,0.3-1.7,0.7-2.2,1.4C650,62.8,649.7,63.1,649.4,63.4z
	 M650.1,88.2c-0.2,0.2-0.6,0.3-0.3,0.7C650,88.6,650.4,88.6,650.1,88.2z M652.6,99c-0.4,0-0.6-0.1-0.7,0c-0.1,0.1-0.2,0.2-0.4,0.3
	l0.2,0.2C651.8,99.4,652.1,99.2,652.6,99z M653.3,73c0.3-0.1,0.6-0.2,0.4-0.7C653.5,72.6,653.3,72.9,653.3,73z M654.7,71.2
	c0.2-0.2,0.6-0.3,0.3-0.7C654.8,70.7,654.3,70.8,654.7,71.2z M656.9,63c0-0.1-0.1-0.2-0.2-0.3c-0.2,0.3-0.8,0.2-1,0.9
	C656.2,63.3,656.6,63.1,656.9,63z M656.3,73.6c0.2,0.2,0.3,0.4,0.6,0.7c2.1-2.8,3.6-5.7,5-8.6c-0.1-0.2-0.3-0.3-0.4-0.4
	C659.7,68.7,657.5,72.3,656.3,73.6z M659.6,98.2c0.4-0.3,0.7-0.7,1.3-0.9c-2.9,2.9-2.9,2.9-4,2.9c0.2-0.6,0.8-0.7,1.3-1
	C658.5,98.9,659.1,98.7,659.6,98.2z M663.7,94.5c-0.2,0.9-1,1.3-1.7,1.8c0.1-0.2,0.1-0.4,0.2-0.4C662.7,95.3,663.2,94.9,663.7,94.5z
	 M665,93.4l-0.6,0.7C664.3,93.6,664.6,93.4,665,93.4z M665.6,92.4c0.1,0.5-0.3,0.7-0.7,1C664.8,92.8,665.1,92.6,665.6,92.4z
	 M666.4,91.2c0,0.7-0.5,0.9-0.7,1.3C665.5,91.8,666,91.7,666.4,91.2z M671.4,86.2c0,0.2,0.1,0.4,0.1,0.5l-4.8,4.7c0-0.4,0-0.6,0-0.7
	c0.7-0.7,1.7-1.3,2.4-2C670,87.8,670.6,87,671.4,86.2z M670.9,83.5l-1,0.9c-0.1,0.1-0.1,0.3-0.2,0.4
	C670.2,84.5,670.7,84.4,670.9,83.5z M669.9,80.7c-0.2-0.4,0-0.7,0.4-0.7C670.2,80.2,670,80.4,669.9,80.7z M670.3,80.2L670.3,80.2
	c-0.1-0.7,0.4-0.8,0.7-1.3C671,79.6,670.6,79.6,670.3,80.2z M671.3,78.6c0.1-0.2,0.2-0.4,0.4-0.6C672.1,78.4,671.6,78.5,671.3,78.6z
	 M671.7,82.5c-0.1,0.2-0.6,0.3-0.2,0.7C671.6,83,672,82.9,671.7,82.5z M671.7,79.3c0.2-0.2,0.3-0.4,0.5-0.7
	C672.4,79.2,672.1,79.3,671.7,79.3z M672.4,81.6c-0.1,0.2-0.5,0.3-0.2,0.7C672.3,82.1,672.7,82.1,672.4,81.6z M673.1,85.1
	c-0.4,0.3-0.7,0.4-1,0.6C672.1,85.3,672.3,85.1,673.1,85.1z M673.2,80.5l-0.6,0.7C673.2,81.1,673.2,81.1,673.2,80.5z"/>
</svg>
