<?xml version="1.0" encoding="utf-8"?>
<!-- Generator: Adobe Illustrator 25.2.0, SVG Export Plug-In . SVG Version: 6.00 Build 0)  -->
<svg version="1.1" id="Layer_1" xmlns="http://www.w3.org/2000/svg" xmlns:xlink="http://www.w3.org/1999/xlink" x="0px" y="0px"
	 viewBox="0 0 658.4 148" style="enable-background:new 0 0 658.4 148;" xml:space="preserve">
<style type="text/css">
	.st0{fill:#061C3A;stroke:#000000;stroke-miterlimit:10;}
</style>
<g>
	<path class="st0" d="M4,34.5c0-0.2,0.2-0.4,0.4-0.4h18.2c6.1,0,10.6,1.6,13.7,4.9c3,3.3,4.6,8,4.6,14.3v39.3
		c0,6.3-1.5,11.1-4.6,14.3c-3,3.3-7.6,4.9-13.7,4.9H4.4c-0.2,0-0.4-0.2-0.4-0.4V34.5z M22.4,100.6c2,0,3.5-0.6,4.6-1.8
		c1.1-1.2,1.6-3.1,1.6-5.8V52.7c0-2.7-0.5-4.6-1.6-5.8s-2.6-1.8-4.6-1.8h-5.8c-0.2,0-0.4,0.2-0.4,0.4v54.6c0,0.2,0.2,0.4,0.4,0.4
		L22.4,100.6L22.4,100.6z"/>
	<path class="st0" d="M49.5,34h32.4c0.2,0,0.4,0.2,0.4,0.4v10.2c0,0.2-0.2,0.4-0.4,0.4H61.7c-0.2,0-0.4,0.2-0.4,0.4v19.7
		c0,0.2,0.2,0.4,0.4,0.4h15.9c0.2,0,0.4,0.2,0.4,0.4v10.2c0,0.2-0.2,0.4-0.4,0.4H61.7c-0.2,0-0.4,0.2-0.4,0.4v23
		c0,0.2,0.2,0.4,0.4,0.4h20.2c0.2,0,0.4,0.2,0.4,0.4v10.2c0,0.2-0.2,0.4-0.4,0.4H49.5c-0.2,0-0.4-0.2-0.4-0.4V34.5
		C49,34.2,49.2,34,49.5,34z"/>
	<path class="st0" d="M96.5,34h31.4c0.2,0,0.4,0.2,0.4,0.4v10.2c0,0.2-0.2,0.4-0.4,0.4h-19.2c-0.2,0-0.4,0.2-0.4,0.4v20.8
		c0,0.2,0.2,0.4,0.4,0.4h14.9c0.2,0,0.4,0.2,0.4,0.4v10.2c0,0.2-0.2,0.4-0.4,0.4h-14.9c-0.2,0-0.4,0.2-0.4,0.4v33
		c0,0.2-0.2,0.4-0.4,0.4H96.6c-0.2,0-0.4-0.2-0.4-0.4V34.5C96.1,34.2,96.3,34,96.5,34z"/>
	<path class="st0" d="M134.3,34.5c0-0.2,0.2-0.4,0.4-0.4h17.7c6.3,0,10.9,1.5,13.8,4.4c2.9,2.9,4.3,7.4,4.3,13.5v4.8
		c0,8.1-2.7,13.2-8,15.3v0.2c3,0.9,5.1,2.7,6.3,5.4c1.2,2.7,1.8,6.4,1.8,11v13.7c0,2.2,0.1,4,0.2,5.4c0.1,1.2,0.4,2.3,0.9,3.4
		c0.1,0.3-0.1,0.6-0.4,0.6h-11.5c-0.2,0-0.4-0.1-0.4-0.3c-0.4-1.1-0.6-2.2-0.8-3.2c-0.1-1.1-0.2-3.1-0.2-6V88c0-3.6-0.6-6-1.7-7.4
		c-1.1-1.4-3.1-2.1-5.9-2.1H147c-0.2,0-0.4,0.2-0.4,0.4v32.4c0,0.2-0.2,0.4-0.4,0.4h-11.3c-0.2,0-0.4-0.2-0.4-0.4V34.5H134.3z
		 M150.9,67.3c2.4,0,4.3-0.6,5.5-1.9s1.8-3.4,1.8-6.3v-6c0-2.8-0.5-4.8-1.5-6.1s-2.6-1.9-4.7-1.9h-5.1c-0.2,0-0.4,0.2-0.4,0.4v21.3
		c0,0.2,0.2,0.4,0.4,0.4L150.9,67.3L150.9,67.3z"/>
	<path class="st0" d="M183.2,107.8c-3.1-3.4-4.7-8.2-4.7-14.5V34.5c0-0.2,0.2-0.4,0.4-0.4h11.3c0.2,0,0.4,0.2,0.4,0.4v59.7
		c0,2.7,0.5,4.6,1.6,5.8c1.1,1.2,2.6,1.8,4.6,1.8s3.5-0.6,4.6-1.8c1.1-1.2,1.6-3.1,1.6-5.8V34.5c0-0.2,0.2-0.4,0.4-0.4h10.9
		c0.2,0,0.4,0.2,0.4,0.4v58.8c0,6.3-1.6,11.1-4.7,14.5c-3.1,3.4-7.6,5.1-13.5,5.1C190.8,112.8,186.3,111.2,183.2,107.8z"/>
	<path class="st0" d="M232.7,45.1h-11.9c-0.2,0-0.4-0.2-0.4-0.4V34.5c0-0.2,0.2-0.4,0.4-0.4h36.9c0.2,0,0.4,0.2,0.4,0.4v10.2
		c0,0.2-0.2,0.4-0.4,0.4h-11.9c-0.2,0-0.4,0.2-0.4,0.4v65.7c0,0.2-0.2,0.4-0.4,0.4h-11.3c-0.2,0-0.4-0.2-0.4-0.4V45.6
		C233.2,45.3,233,45.1,232.7,45.1z"/>
	<path class="st0" d="M267.5,107.7c-3.2-3.4-4.8-8.2-4.8-14.4V52.5c0-6.2,1.6-11,4.8-14.4c3.2-3.4,7.8-5.1,13.8-5.1
		s10.6,1.7,13.8,5.1c3.2,3.4,4.8,8.2,4.8,14.4v40.8c0,6.2-1.6,11-4.8,14.4c-3.2,3.4-7.8,5.1-13.8,5.1
		C275.2,112.8,270.6,111.1,267.5,107.7z M287.5,94.1V51.7c0-5.1-2.1-7.7-6.3-7.7c-4.2,0-6.3,2.6-6.3,7.7v42.4c0,5.1,2.1,7.7,6.3,7.7
		C285.4,101.7,287.5,99.2,287.5,94.1z"/>
	<path class="st0" d="M310.4,107.8c-3-3.4-4.6-8.2-4.6-14.5v-4c0-0.2,0.2-0.4,0.4-0.4h10.7c0.2,0,0.4,0.2,0.4,0.4v4.9
		c0,5,2.1,7.5,6.3,7.5c2.1,0,3.6-0.6,4.7-1.8c1.1-1.2,1.6-3.2,1.6-5.9c0-3.3-0.7-6.1-2.2-8.6s-4.2-5.5-8.2-8.9
		c-5-4.4-8.5-8.5-10.5-12c-2-3.6-3-7.6-3-12.2c0-6.1,1.6-10.9,4.7-14.3s7.6-5,13.5-5c5.8,0,10.3,1.7,13.3,5c3,3.4,4.5,8.2,4.5,14.5
		v2.8c0,0.2-0.2,0.4-0.4,0.4h-10.7c-0.2,0-0.4-0.2-0.4-0.4v-3.6c0-2.7-0.5-4.6-1.6-5.8c-1-1.2-2.6-1.8-4.6-1.8
		c-4.1,0-6.1,2.5-6.1,7.4c0,2.8,0.8,5.4,2.3,7.9c1.5,2.4,4.3,5.4,8.3,8.9c5.1,4.4,8.6,8.5,10.5,12.1s2.9,7.9,2.9,12.8
		c0,6.4-1.6,11.2-4.7,14.7c-3.1,3.4-7.7,5.1-13.7,5.1C317.9,112.8,313.4,111.2,310.4,107.8z"/>
</g>
<g>
	<path class="st0" d="M371.6,34.5c0-0.2,0.2-0.4,0.4-0.4h18.2c6.1,0,10.6,1.6,13.6,4.9c3,3.3,4.5,8,4.5,14.3v39.2
		c0,6.3-1.5,11-4.5,14.3c-3,3.3-7.6,4.9-13.6,4.9H372c-0.2,0-0.4-0.2-0.4-0.4V34.5z M390,100.6c2,0,3.5-0.6,4.6-1.8
		c1.1-1.2,1.6-3.1,1.6-5.8V52.7c0-2.7-0.5-4.6-1.6-5.8c-1.1-1.2-2.6-1.8-4.6-1.8h-5.8c-0.2,0-0.4,0.2-0.4,0.4v54.6
		c0,0.2,0.2,0.4,0.4,0.4H390z"/>
	<path class="st0" d="M419.2,34.1h32.4c0.2,0,0.4,0.2,0.4,0.4v10.3c0,0.2-0.2,0.4-0.4,0.4h-20.2c-0.2,0-0.4,0.2-0.4,0.4v19.7
		c0,0.2,0.2,0.4,0.4,0.4h15.9c0.2,0,0.4,0.2,0.4,0.4v10.3c0,0.2-0.2,0.4-0.4,0.4h-15.9c-0.2,0-0.4,0.2-0.4,0.4v23
		c0,0.2,0.2,0.4,0.4,0.4h20.2c0.2,0,0.4,0.2,0.4,0.4v10.3c0,0.2-0.2,0.4-0.4,0.4h-32.4c-0.2,0-0.4-0.2-0.4-0.4V34.5
		C418.8,34.3,419,34.1,419.2,34.1z"/>
	<path class="st0" d="M463.9,107.8c-3-3.4-4.5-8.2-4.5-14.5v-4c0-0.2,0.2-0.4,0.4-0.4h10.7c0.2,0,0.4,0.2,0.4,0.4v4.9
		c0,5,2.1,7.5,6.3,7.5c2.1,0,3.6-0.6,4.7-1.8c1.1-1.2,1.6-3.2,1.6-5.9c0-3.3-0.7-6.1-2.2-8.6c-1.5-2.5-4.2-5.4-8.2-8.9
		c-5-4.4-8.5-8.4-10.5-12c-2-3.6-3-7.6-3-12.1c0-6.1,1.6-10.9,4.7-14.2c3.1-3.4,7.6-5,13.5-5c5.8,0,10.3,1.7,13.2,5
		c3,3.4,4.5,8.2,4.5,14.5v2.8c0,0.2-0.2,0.4-0.4,0.4h-10.7c-0.2,0-0.4-0.2-0.4-0.4v-3.6c0-2.7-0.5-4.6-1.6-5.8
		c-1-1.2-2.5-1.8-4.5-1.8c-4.1,0-6.1,2.5-6.1,7.4c0,2.8,0.8,5.4,2.3,7.9c1.5,2.4,4.3,5.4,8.3,8.9c5.1,4.4,8.6,8.5,10.5,12.1
		c1.9,3.6,2.9,7.9,2.9,12.7c0,6.4-1.6,11.2-4.7,14.6c-3.1,3.4-7.7,5.1-13.7,5.1C471.4,112.8,466.9,111.1,463.9,107.8z"/>
	<path class="st0" d="M505.3,34.1h11.4c0.2,0,0.4,0.2,0.4,0.4v76.8c0,0.2-0.2,0.4-0.4,0.4h-11.4c-0.2,0-0.4-0.2-0.4-0.4V34.5
		C504.9,34.3,505.1,34.1,505.3,34.1z"/>
	<path class="st0" d="M532.2,107.8c-3.1-3.4-4.7-8.2-4.7-14.5V52.5c0-6.3,1.6-11.1,4.7-14.5c3.1-3.4,7.6-5,13.5-5
		c5.9,0,10.4,1.7,13.5,5c3.1,3.4,4.7,8.2,4.7,14.5v6.2c0,0.2-0.2,0.4-0.4,0.4h-10.7c-0.2,0-0.4-0.2-0.4-0.4v-7
		c0-5.1-2.1-7.6-6.3-7.6s-6.3,2.5-6.3,7.6v42.4c0,5,2.1,7.5,6.3,7.5s6.3-2.5,6.3-7.5V79.4c0-0.2-0.2-0.4-0.4-0.4h-5.3
		c-0.2,0-0.4-0.2-0.4-0.4V68.3c0-0.2,0.2-0.4,0.4-0.4h16.8c0.2,0,0.4,0.2,0.4,0.4v25c0,6.3-1.6,11.1-4.7,14.5c-3.1,3.4-7.6,5-13.5,5
		C539.8,112.8,535.3,111.1,532.2,107.8z"/>
	<path class="st0" d="M574.4,34.1h14.6c0.2,0,0.4,0.1,0.4,0.3l11.8,46.1h0.2v-46c0-0.2,0.2-0.4,0.4-0.4h10c0.2,0,0.4,0.2,0.4,0.4
		v76.8c0,0.2-0.2,0.4-0.4,0.4H600c-0.2,0-0.4-0.1-0.4-0.3L585,55.1h-0.2v56.2c0,0.2-0.2,0.4-0.4,0.4h-10c-0.2,0-0.4-0.2-0.4-0.4
		V34.5C574,34.3,574.1,34.1,574.4,34.1z"/>
</g>
<rect x="351.2" y="100.6" class="st0" width="10.7" height="10.7"/>
</svg>
